<?xml version="1.0" standalone="no"?>
<!DOCTYPE svg PUBLIC "-//W3C//DTD SVG 1.1//EN" "http://www.w3.org/Graphics/SVG/1.1/DTD/svg11.dtd" >
<svg xmlns="http://www.w3.org/2000/svg" xmlns:xlink="http://www.w3.org/1999/xlink" version="1.1">
<metadata>
This is a custom SVG webfont generated by Typotheque.
</metadata>
<defs>
<font id="typotheque_webfonts_service" horiz-adv-x="701" >
<font-face units-per-em="1000" ascent="780" descent="-220" />
<missing-glyph horiz-adv-x="243" />
<glyph unicode=" "  horiz-adv-x="243" />
<glyph unicode="&#x09;" horiz-adv-x="243" />
<glyph unicode="&#xa0;" horiz-adv-x="243" />
<glyph unicode="A" horiz-adv-x="580" d="M14 0l233 650h86l234 -650h-86l-60 172h-266l-59 -172h-82zM334 421l-47 147l-46 -148l-63 -181h219z" />
<glyph unicode="B" horiz-adv-x="574" d="M526 186q0 -89 -54 -137.5t-168 -48.5h-214v650h193q106 0 151 -43t45 -118q0 -42 -23 -81t-76 -59v-2q43 -7 71 -23.5t44.5 -38.5t23.5 -47.5t7 -51.5zM171 304v-233h124q78 0 112 27t34 88q0 62 -40 90t-117 28h-113zM394 480q0 51 -29.5 75t-92.5 24h-101v-209h96 q57 0 92 29t35 81z" />
<glyph unicode="C" horiz-adv-x="581" d="M540 31q-38 -21 -84.5 -31t-100.5 -10q-68 0 -123.5 18.5t-95 58.5t-61 102.5t-21.5 150.5q0 82 22.5 145t63.5 106t98.5 65.5t126.5 22.5q50 0 94 -11t73 -28l-28 -78q-28 23 -65.5 35t-75.5 12q-112 0 -167.5 -69.5t-55.5 -197.5q0 -262 221 -262q50 0 92 13t65 28z " />
<glyph unicode="D" horiz-adv-x="672" d="M90 650h226q85 0 143 -26t92.5 -70t49.5 -101.5t15 -120.5q0 -70 -13 -130.5t-47.5 -105.5t-94 -70.5t-151.5 -25.5h-220v650zM171 579v-508h148q67 0 108.5 19.5t64 53.5t30 79.5t7.5 98.5q0 49 -9.5 95.5t-33.5 82.5t-65.5 57.5t-105.5 21.5h-144z" />
<glyph unicode="E" horiz-adv-x="533" d="M473 650v-71h-302v-211h269v-69h-269v-228h302v-71h-383v650h383z" />
<glyph unicode="F" horiz-adv-x="505" d="M464 650v-71h-293v-238h261v-70h-261v-271h-81v650h374z" />
<glyph unicode="G" horiz-adv-x="628" d="M565 322v-269q-17 -12 -39.5 -23t-49 -20t-56 -14.5t-59.5 -5.5q-63 0 -118.5 17t-97.5 56t-66.5 102.5t-24.5 155.5q0 87 25 150.5t68.5 105.5t101.5 62t125 20q57 0 103.5 -12.5t76.5 -29.5l-28 -79q-30 23 -71 37t-82 14q-110 0 -171 -63.5t-61 -202.5q0 -74 17 -124 t47.5 -81t73 -44.5t93.5 -13.5q33 0 61.5 7t51.5 18v237h80z" />
<glyph unicode="H" horiz-adv-x="663" d="M573 650v-650h-81v298h-321v-298h-81v650h81v-279h321v279h81z" />
<glyph unicode="I" horiz-adv-x="261" d="M171 650v-650h-81v650h81z" />
<glyph unicode="J" horiz-adv-x="261" d="M173 53q0 -81 -43.5 -136t-127.5 -75l-25 68q26 7 47 18.5t36 28.5t23.5 42t8.5 61v590h81v-597z" />
<glyph unicode="K" horiz-adv-x="570" d="M171 650v-300l49 14l222 286h93l-252 -316l277 -334h-101l-244 294l-44 -10v-284h-81v650h81z" />
<glyph unicode="L" horiz-adv-x="467" d="M171 650v-579h280v-71h-361v650h81z" />
<glyph unicode="M" horiz-adv-x="821" d="M655 511l-58 -161l-141 -350h-85l-141 333l-65 167v-500h-75v650h92l154 -365l79 -207l76 203l150 369h90v-650h-76v511z" />
<glyph unicode="N" horiz-adv-x="702" d="M168 0h-78v650h85l260 -373l102 -152l-1 126v399h77v-650h-81l-261 375l-104 156l1 -144v-387z" />
<glyph unicode="O" d="M352 659q143 0 219 -87t76 -248q0 -73 -21 -134t-60 -105.5t-94.5 -69.5t-124.5 -25q-72 0 -127 23t-91.5 66t-55.5 104.5t-19 138.5q0 73 20.5 135t58.5 107t93.5 70t125.5 25zM347 60q54 0 94 19t66.5 53.5t39.5 83t13 108.5q0 127 -49.5 196t-158.5 69 q-111 0 -161.5 -69.5t-50.5 -197.5q0 -61 11 -109.5t36 -82.5t64.5 -52t95.5 -18z" />
<glyph unicode="P" horiz-adv-x="545" d="M90 650h192q62 0 105 -14t70 -41t39.5 -65.5t12.5 -87.5q0 -50 -16 -89.5t-45 -66.5t-69.5 -41.5t-89.5 -14.5h-118v-230h-81v650zM284 299q30 0 55.5 7.5t44 24t29 43t10.5 64.5q0 71 -32.5 106t-110.5 35h-109v-280h113z" />
<glyph unicode="Q" d="M352 659q143 0 219 -87t76 -248q0 -107 -44.5 -187.5t-124.5 -118.5l166 -173l-70 -48l-163 200q-15 -3 -31 -5t-33 -2q-72 0 -127 23t-91.5 66t-55.5 104.5t-19 138.5q0 73 20.5 135t58.5 107t93.5 70t125.5 25zM347 60q54 0 94 19t66.5 53.5t39.5 83t13 108.5 q0 127 -49.5 196t-158.5 69q-111 0 -161.5 -69.5t-50.5 -197.5q0 -61 11 -109.5t36 -82.5t64.5 -52t95.5 -18z" />
<glyph unicode="R" horiz-adv-x="577" d="M90 650h186q124 0 176 -51t52 -148q0 -68 -32 -114.5t-88 -67.5l159 -269h-96l-144 252h-132v-252h-81v650zM278 322q30 0 55.5 6t44 20.5t29.5 39t11 60.5q0 72 -33.5 101.5t-110.5 29.5h-103v-257h107z" />
<glyph unicode="S" horiz-adv-x="504" d="M239 59q25 0 48.5 6t42.5 19t30.5 32t11.5 45q0 42 -23 67.5t-58 44t-75.5 34.5t-75.5 38.5t-58 56t-23 86.5q0 38 15.5 69.5t42.5 54t63.5 35t78.5 12.5q55 0 98.5 -13t74.5 -31l-25 -80q-23 21 -62 37.5t-81 16.5q-56 0 -88 -25t-32 -69q0 -38 23.5 -61.5t58 -41 t75.5 -33.5t75.5 -39.5t58 -59t23.5 -91.5q0 -40 -17 -73t-47 -56.5t-70 -36.5t-86 -13q-60 0 -109.5 18t-81.5 38l27 80q14 -12 33 -24t41 -21.5t45 -15.5t46 -6z" />
<glyph unicode="T" horiz-adv-x="519" d="M503 579h-202v-579h-81v579h-203v71h486v-71z" />
<glyph unicode="U" horiz-adv-x="674" d="M511 650h80v-407q0 -56 -14.5 -102.5t-45 -80t-79 -52t-116.5 -18.5t-116 16t-78 47.5t-44 77t-14 104.5v415h81v-406q0 -53 10.5 -88.5t31.5 -57t53.5 -30.5t77.5 -9q91 0 132 44.5t41 147.5v399z" />
<glyph unicode="V" horiz-adv-x="573" d="M245 233l46 -158l45 157l137 418h82l-221 -650h-90l-234 650h84z" />
<glyph unicode="W" horiz-adv-x="858" d="M587 249l40 -173l34 176l84 398h78l-150 -650h-97l-102 357l-47 192l-44 -194l-96 -355h-95l-165 650h83l96 -399l35 -175l39 173l105 392h92z" />
<glyph unicode="X" horiz-adv-x="558" d="M128 650l155 -249l156 249h81l-197 -308l220 -342h-91l-175 279l-176 -279h-83l217 338l-199 312h92z" />
<glyph unicode="Y" horiz-adv-x="524" d="M267 317l80 167l83 166h81l-206 -399v-251h-81v251l-221 399h87l90 -165z" />
<glyph unicode="Z" horiz-adv-x="532" d="M57 650h424v-62l-240 -361l-108 -156h357v-71h-452v57l244 367l107 155h-332v71z" />
<glyph unicode="a" horiz-adv-x="491" d="M329 208q-16 2 -34 4t-38 2q-25 0 -49 -3.5t-43 -13t-31 -25.5t-12 -41q0 -39 24 -58.5t62 -19.5q35 0 68 19.5t53 42.5v93zM330 327q0 57 -25 77.5t-68 20.5q-15 0 -33.5 -3.5t-33 -12.5t-22 -25.5t0.5 -43.5l-72 -9q-6 19 -6 37q0 27 14 49.5t38 38.5t55.5 24.5 t66.5 8.5q31 0 60.5 -7t52.5 -24.5t36.5 -47t13.5 -73.5l-1 -231q0 -38 16 -47t35 -3l6 -59q-24 -7 -46 -7q-37 0 -58 18.5t-26 49.5q-38 -41 -77.5 -54.5t-74.5 -13.5q-64 0 -103 36.5t-39 96.5q0 43 19 70.5t50 43.5t70 22t78 6q19 0 37 -1t35 -3z" />
<glyph unicode="b" horiz-adv-x="546" d="M152 431q35 28 73.5 43t77.5 15q48 0 84.5 -17.5t61.5 -49t38 -75.5t13 -98q0 -60 -18 -107.5t-51 -81.5t-79 -52t-102 -18q-45 0 -90 10t-87 29v656h79v-254zM152 77q23 -11 47.5 -16t47.5 -5q81 0 125 49t44 137q0 90 -37 133.5t-97 43.5q-64 0 -130 -54v-288z" />
<glyph unicode="c" horiz-adv-x="458" d="M131 233q0 -84 39.5 -130.5t114.5 -46.5q33 0 62 12.5t48 28.5l22 -67q-31 -20 -71 -30t-77 -10q-50 0 -91 16t-70 46.5t-45 75.5t-16 104q0 63 17.5 111t49 80.5t74 49t92.5 16.5q43 0 76 -8.5t62 -23.5l-25 -74q-26 19 -53 29t-59 10q-73 0 -111.5 -49t-38.5 -140z" />
<glyph unicode="d" horiz-adv-x="548" d="M474 0h-75l-1 59q-33 -30 -72 -49.5t-82 -19.5q-48 0 -85 17t-61.5 48.5t-37.5 76t-13 98.5q0 60 17.5 107.5t49.5 81.5t77 52t101 18q24 0 50 -4t52 -12v212h80v-685zM394 396q-22 14 -48 20.5t-51 6.5q-79 0 -122 -49t-43 -137q0 -90 37.5 -133.5t96.5 -43.5 q32 0 65.5 16t64.5 45v275z" />
<glyph unicode="e" horiz-adv-x="494" d="M291 55q41 0 75 16.5t53 32.5l22 -66q-30 -19 -72 -33.5t-95 -14.5q-50 0 -91.5 15t-71.5 45.5t-46.5 77.5t-16.5 112q0 59 16.5 105.5t45 78.5t67.5 48.5t83 16.5t79 -13t59 -40.5t37 -71.5t13 -106v-30h-318q3 -88 44.5 -130.5t116.5 -42.5zM368 283q2 68 -25 106 t-84 38q-115 0 -127 -144h236z" />
<glyph unicode="f" horiz-adv-x="347" d="M184 471h142v-61h-142v-410h-79v410h-78v56l78 5v38q1 49 13.5 84.5t34.5 58t52.5 33t66.5 10.5q26 0 53 -5t44 -13l-17 -73q-17 11 -37.5 18.5t-40.5 7.5q-48 0 -69 -30t-21 -90v-39z" />
<glyph unicode="g" horiz-adv-x="532" d="M246 489q24 0 41 -3t36.5 -6.5t45.5 -6.5t68 -3h73v-56h-90q16 -18 23.5 -41t7.5 -47q0 -32 -13 -60t-35.5 -49.5t-54.5 -36.5t-69 -19q-19 -6 -37.5 -12.5t-33.5 -13.5t-24.5 -15t-9.5 -16q0 -11 9.5 -17t26 -10t39 -6t49.5 -3q40 -3 77 -8t64.5 -17.5t44 -34.5 t16.5 -57q0 -33 -17 -64.5t-49.5 -56.5t-79.5 -40.5t-107 -15.5q-44 0 -83.5 7.5t-69.5 22.5t-48 38.5t-18 56.5q0 42 28.5 75t82.5 54q-15 8 -25.5 22.5t-10.5 34.5q0 29 25.5 47.5t58.5 31.5q-70 14 -106 56.5t-36 98.5q0 36 15 67.5t42 54t64 35.5t80 13zM291 5 q-28 1 -51 2.5t-43 4.5q-41 -15 -67 -38t-26 -58q0 -23 12.5 -38.5t33.5 -25.5t48.5 -14.5t57.5 -4.5q75 0 118.5 31t43.5 75q0 35 -35.5 49t-91.5 17zM125 321q0 -29 11 -49.5t28.5 -34t39 -19.5t42.5 -6t43 7t40 21t29.5 34.5t11.5 48.5q0 55 -36.5 81.5t-87.5 26.5 q-24 0 -45.5 -6.5t-38.5 -20t-27 -34.5t-10 -49z" />
<glyph unicode="h" horiz-adv-x="548" d="M154 0h-80v685h80v-260q40 33 80.5 48.5t78.5 15.5q28 0 57.5 -7t53.5 -25.5t39 -50.5t15 -83v-323h-80v294q0 71 -26 97t-77 26q-37 0 -73 -15.5t-68 -41.5v-360z" />
<glyph unicode="i" horiz-adv-x="227" d="M154 0h-80v477h80v-477zM66 640q0 21 14 35.5t35 14.5t36 -14.5t15 -35.5t-15 -35.5t-36 -14.5t-35 14.5t-14 35.5z" />
<glyph unicode="j" horiz-adv-x="227" d="M75 477h80v-491q0 -62 -21 -102.5t-52.5 -64.5t-68.5 -34t-69 -9l-12 68q26 1 51.5 7t46 22.5t33 44.5t12.5 72v487zM67 640q0 21 14 35.5t35 14.5t36 -14.5t15 -35.5t-15 -35.5t-36 -14.5t-35 14.5t-14 35.5z" />
<glyph unicode="k" horiz-adv-x="480" d="M471 0h-101l-180 212l-36 -7v-205h-80v685h80v-419l30 8l165 203h91l-187 -223z" />
<glyph unicode="l" horiz-adv-x="235" d="M158 0h-80v685h80v-685z" />
<glyph unicode="m" horiz-adv-x="853" d="M154 0h-80v477h75l1 -55q39 35 77.5 51t76.5 16q42 0 82 -15.5t63 -60.5q35 33 77.5 54.5t90.5 21.5q28 0 57.5 -7t53.5 -25.5t39.5 -50.5t15.5 -83v-323h-79v294q0 71 -27 97.5t-78 26.5q-33 0 -68.5 -18t-65.5 -42q3 -17 3 -35v-323h-79v294q0 71 -26.5 97.5 t-76.5 26.5q-32 0 -67 -16t-65 -42v-360z" />
<glyph unicode="n" horiz-adv-x="548" d="M154 0h-80v477h75l1 -55q40 35 82.5 51t80.5 16q28 0 57.5 -7t53.5 -25.5t39 -50.5t15 -83v-323h-80v294q0 71 -26 97.5t-77 26.5q-37 0 -73 -16t-68 -42v-360z" />
<glyph unicode="o" horiz-adv-x="547" d="M47 240q0 54 15.5 99.5t45 79t71 52t94.5 18.5q110 0 168.5 -65.5t58.5 -183.5q0 -50 -14.5 -95t-43 -79.5t-70.5 -55t-98 -20.5q-107 0 -167 64.5t-60 185.5zM131 240q0 -42 7.5 -76t24 -58t43.5 -37.5t66 -13.5q41 0 69 13.5t45 38.5t24 58.5t7 74.5q0 37 -7 70.5 t-24 59t-45 40t-69 14.5q-40 0 -67 -14.5t-43.5 -39.5t-23.5 -58.5t-7 -71.5z" />
<glyph unicode="p" horiz-adv-x="548" d="M254 -10q-23 0 -48.5 4t-51.5 11v-225h-80v697h74l2 -57q33 29 72 49t82 20q48 0 85 -17.5t61.5 -49t37.5 -75.5t13 -98q0 -60 -18 -107.5t-50.5 -81.5t-78 -52t-100.5 -18zM154 81q22 -14 45 -19.5t52 -5.5q79 0 122.5 49t43.5 137q0 90 -37 133.5t-96 43.5 q-32 0 -65.5 -16.5t-64.5 -44.5v-277z" />
<glyph unicode="q" horiz-adv-x="546" d="M395 55q-32 -29 -70.5 -47t-80.5 -18q-48 0 -84.5 17t-61.5 48.5t-38 76t-13 98.5q0 60 18 108t51 81.5t79 51.5t102 18q49 0 92 -10.5t85 -30.5v-668h-79v275zM395 400q-25 13 -49 18t-50 5q-79 0 -121.5 -49t-42.5 -137q0 -90 37 -133.5t96 -43.5q32 0 65 16t65 45v279 z" />
<glyph unicode="r" horiz-adv-x="346" d="M154 0h-80v477h74l2 -84q32 47 69.5 68t75.5 21h16.5t16.5 -1l-6 -81q-18 6 -38 6q-34 0 -67 -19.5t-63 -56.5v-330z" />
<glyph unicode="s" horiz-adv-x="419" d="M297 126q0 27 -18 43.5t-45.5 29t-59 23.5t-59 27.5t-45.5 41t-18 64.5q0 36 16 61.5t40 41.5t53 23.5t55 7.5q48 0 82 -9.5t64 -26.5l-23 -72q-12 14 -43 29t-77 15q-13 0 -28 -3t-28 -11t-22 -21t-9 -32q0 -22 18 -37t45.5 -26.5t59.5 -24t59.5 -30t45.5 -43.5t18 -65 q0 -40 -16.5 -67.5t-42.5 -44t-59.5 -23.5t-67.5 -7q-42 0 -82 11.5t-69 28.5l23 73q9 -8 22.5 -17t30.5 -16t36 -11.5t38 -4.5q46 0 76 15.5t30 56.5z" />
<glyph unicode="t" horiz-adv-x="378" d="M177 162q0 -31 6 -51t16.5 -32t26 -17t35.5 -5q25 0 47 9t38 23l18 -67q-29 -16 -61 -24t-63 -8q-32 0 -58 8t-45 26.5t-29 50t-10 78.5v257h-73v57l74 5l10 129h68v-130h164v-61h-164v-248z" />
<glyph unicode="u" horiz-adv-x="545" d="M392 477h79v-477h-73l-2 56q-41 -35 -81.5 -51t-78.5 -16q-29 0 -58.5 6.5t-53.5 24.5t-39 50.5t-15 84.5v322h80v-296q0 -72 26 -98t76 -26q37 0 72.5 17.5t67.5 43.5v359z" />
<glyph unicode="v" horiz-adv-x="494" d="M197 0l-178 477h83l108 -288l40 -124l40 125l105 287h83l-183 -477h-98z" />
<glyph unicode="w" horiz-adv-x="768" d="M164 0l-137 477h82l75 -274l32 -135l41 136l90 273h84l93 -291l33 -118l28 120l78 289h81l-141 -477h-96l-86 260l-35 132l-38 -134l-90 -258h-94z" />
<glyph unicode="x" horiz-adv-x="460" d="M344 477h82l-152 -222l171 -255h-87l-129 199l-132 -199h-81l172 251l-151 226h86l110 -169z" />
<glyph unicode="y" horiz-adv-x="492" d="M205 -220h-76l78 206l-190 491h83l101 -260l50 -136l48 135l98 261h78z" />
<glyph unicode="z" horiz-adv-x="459" d="M420 65v-65h-384v48l272 363h-256v66h360v-48l-275 -364h283z" />
<glyph unicode="0" horiz-adv-x="617" d="M312 659q66 0 112.5 -22.5t76.5 -63.5t43.5 -99.5t13.5 -131.5q0 -60 -10 -122.5t-38 -113.5t-77.5 -83.5t-127.5 -32.5q-124 0 -184.5 83.5t-60.5 238.5q0 70 12 133t40.5 110.5t77 75.5t122.5 28zM311 58q52 0 84.5 24.5t50.5 63.5t24 87.5t6 97.5q0 46 -5 92.5 t-23 83.5t-52 60t-91 23q-50 0 -81.5 -22t-49.5 -58t-25 -82t-7 -94q0 -52 5.5 -101.5t23 -88.5t51 -62.5t89.5 -23.5z" />
<glyph unicode="1" horiz-adv-x="341" d="M24 647l226 11v-658h-80v583l-146 -7v71z" />
<glyph unicode="2" horiz-adv-x="523" d="M38 56q46 33 102.5 84.5t106.5 110.5t84 118.5t34 107.5q0 55 -33.5 84t-82.5 29q-38 0 -75 -19.5t-63 -48.5l-42 52q12 13 31 28t44.5 27.5t55.5 21t65 8.5q38 0 71 -11t58 -33t39 -54.5t14 -74.5q0 -50 -29.5 -107.5t-74.5 -114t-99 -107.5t-103 -87h337v-70h-440v56v0 z" />
<glyph unicode="3" horiz-adv-x="516" d="M431 511q0 -63 -43 -104t-111 -58q86 -14 135 -59t49 -117q0 -33 -12.5 -65.5t-40 -58.5t-72.5 -42.5t-110 -16.5q-33 0 -64 6.5t-56 16t-43 20t-25 17.5l43 65q28 -23 68.5 -40t85.5 -17q27 0 53 7.5t46.5 22t32.5 35.5t12 49q0 35 -18 60t-49.5 41.5t-74 25.5t-91.5 12 v54q38 3 74.5 13t65 27t46 40.5t17.5 53.5q0 44 -32.5 67.5t-80.5 23.5q-44 0 -77.5 -15t-56.5 -33l-34 57q22 17 50 30q24 11 58 20.5t76 9.5q39 0 72 -11.5t56.5 -31t37 -47t13.5 -58.5z" />
<glyph unicode="4" horiz-adv-x="557" d="M422 1h-79v163h-312v54l309 432h82v-420h98v-66h-98v-163zM343 231v324l-233 -324h233z" />
<glyph unicode="5" horiz-adv-x="510" d="M165 403q151 -2 222 -58t71 -155q0 -38 -13.5 -74t-42 -64t-73 -45t-107.5 -17q-51 0 -98 18t-79 44l40 65q30 -29 69 -44t79 -15q27 0 53 8t45.5 23.5t31.5 39.5t12 56q0 44 -19.5 73.5t-56.5 47t-90 25t-120 7.5v312h351v-70h-275v-177z" />
<glyph unicode="6" horiz-adv-x="554" d="M422 198q0 67 -33 97t-105 30q-44 0 -81.5 -16t-62.5 -36q1 -44 7.5 -83t24 -68t47 -46.5t75.5 -17.5q34 0 58.5 11.5t40 31t22.5 45t7 52.5zM503 211q0 -50 -14.5 -90.5t-42.5 -69.5t-68 -45t-92 -16q-63 0 -106.5 22.5t-70.5 63.5t-39 98t-12 126q0 84 24 150.5 t69 112.5t109 70.5t145 24.5q17 0 34 -1t35 -3v-72q-35 6 -69 6q-52 0 -98.5 -14.5t-82 -44.5t-58 -76.5t-25.5 -110.5q35 23 77 37.5t93 14.5q40 0 75 -11.5t61 -34.5t41 -57t15 -80z" />
<glyph unicode="7" horiz-adv-x="487" d="M467 602l-281 -601h-80l272 579h-347v70h436v-48z" />
<glyph unicode="8" horiz-adv-x="556" d="M479 509q0 -26 -13 -49t-34 -43t-47.5 -37.5t-53.5 -31.5q29 -15 59.5 -33t56 -40t41.5 -49t16 -60q0 -39 -18.5 -71.5t-50 -56t-72.5 -36t-86 -12.5q-42 0 -81.5 10.5t-71 31t-50.5 50.5t-19 70q0 35 14 63.5t37 51t52 40.5t59 33q-30 18 -55.5 34t-44.5 34.5 t-29.5 41.5t-10.5 55q0 35 17 63.5t45.5 48.5t65.5 31t78 11q44 0 80 -11t62 -30.5t40 -47t14 -61.5zM422 161q0 25 -15 46t-37.5 38.5t-49.5 32.5t-50 28q-24 -12 -47.5 -27t-42.5 -33t-31 -39.5t-12 -47.5q0 -27 11.5 -47t31.5 -33.5t47 -20t59 -6.5q60 0 98 30.5t38 78.5 zM156 510q0 -20 6 -34.5t20 -28.5t38 -29.5t60 -37.5q56 35 86 64.5t30 61.5q0 24 -10 41.5t-26 28t-36.5 15.5t-42.5 5q-59 0 -92 -24t-33 -62z" />
<glyph unicode="9" horiz-adv-x="554" d="M133 451q0 -67 33 -97t104 -30q45 0 82.5 16t62.5 36q-1 43 -7.5 82.5t-24 68.5t-47 46.5t-75.5 17.5q-34 0 -58.5 -12t-40 -31.5t-22.5 -44.5t-7 -52zM52 438q0 49 14.5 90t42 70t68 45t92.5 16q63 0 106 -22.5t70 -63.5t39 -98t12 -126q0 -84 -24 -150.5t-69 -112.5 t-109 -70.5t-144 -24.5q-17 0 -34 1t-35 3v72q34 -6 69 -6q52 0 98.5 14.5t82 44.5t57.5 76.5t25 110.5q-35 -23 -76.5 -37.5t-92.5 -14.5q-40 0 -75 11.5t-61 34.5t-41 57t-15 80z" />
<glyph unicode="&#xc1;" horiz-adv-x="580" d="M14 0l233 650h86l234 -650h-86l-60 172h-266l-59 -172h-82zM334 421l-47 147l-46 -148l-63 -181h219zM250 695l-23 41l163 106l34 -66z" />
<glyph unicode="&#xc2;" horiz-adv-x="580" d="M14 0l233 650h86l234 -650h-86l-60 172h-266l-59 -172h-82zM334 421l-47 147l-46 -148l-63 -181h219zM434 748l-35 -44l-109 82l-107 -82l-33 42l121 99h43z" />
<glyph unicode="&#xc4;" horiz-adv-x="580" d="M14 0l233 650h86l234 -650h-86l-60 172h-266l-59 -172h-82zM334 421l-47 147l-46 -148l-63 -181h219zM150 774q0 20 13 33.5t33 13.5t33.5 -13.5t13.5 -33.5t-13.5 -33t-33.5 -13t-33 13t-13 33zM330 774q0 20 13 33.5t33 13.5t33.5 -13.5t13.5 -33.5t-13.5 -33 t-33.5 -13t-33 13t-13 33z" />
<glyph unicode="&#xc5;" horiz-adv-x="580" d="M14 0l233 650h86l234 -650h-86l-60 172h-266l-59 -172h-82zM334 421l-47 147l-46 -148l-63 -181h219zM288 686q-46 0 -74.5 27t-28.5 71q0 45 31 71t74 26q44 0 72.5 -24.5t28.5 -72.5q0 -41 -28 -69.5t-75 -28.5zM288 728q53 0 53 56q0 26 -12.5 41.5t-40.5 15.5 t-41 -15t-13 -42q0 -28 14 -42t40 -14z" />
<glyph unicode="&#xc0;" horiz-adv-x="580" d="M14 0l233 650h86l234 -650h-86l-60 172h-266l-59 -172h-82zM334 421l-47 147l-46 -148l-63 -181h219zM150 776l34 66l163 -106l-23 -41z" />
<glyph unicode="&#xc3;" horiz-adv-x="580" d="M14 0l233 650h86l234 -650h-86l-60 172h-266l-59 -172h-82zM334 421l-47 147l-46 -148l-63 -181h219zM128 755q46 62 97 62q19 0 35.5 -4.5t31.5 -10t30 -10t30 -4.5q14 0 31 6t34 26l27 -31q-20 -28 -44 -44.5t-52 -16.5q-16 0 -31.5 5t-31 10.5t-31 10.5t-30.5 5 q-22 0 -39 -9.5t-29 -23.5z" />
<glyph unicode="&#xc6;" horiz-adv-x="826" d="M768 650v-71h-302v-211h268v-69h-268v-228h302v-71h-383v172h-213l-92 -172h-81l357 650h412zM385 238v328l-177 -328h177z" />
<glyph unicode="&#x1fc;" horiz-adv-x="826" d="M768 650v-71h-302v-211h268v-69h-268v-228h302v-71h-383v172h-213l-92 -172h-81l357 650h412zM385 238v328l-177 -328h177zM508 695l-23 41l163 106l34 -66z" />
<glyph unicode="&#xc7;" horiz-adv-x="581" d="M266 -152q9 -11 27 -19t38 -8q26 0 38.5 10.5t12.5 26.5q0 21 -21 35.5t-65 16.5l23 81q-60 4 -109 25.5t-83.5 61.5t-53.5 100t-19 142t22.5 145t63.5 106t98.5 65.5t126.5 22.5q50 0 94 -11t73 -28l-28 -78q-28 23 -65.5 35t-75.5 12q-112 0 -167.5 -69.5t-55.5 -197.5 q0 -262 221 -262q50 0 92 13t65 28l22 -70q-36 -20 -79.5 -29.5t-93.5 -11.5l-13 -47q47 -8 69 -32.5t22 -53.5q0 -36 -31.5 -60.5t-81.5 -24.5q-26 0 -49.5 7.5t-37.5 16.5z" />
<glyph unicode="&#x106;" horiz-adv-x="581" d="M540 31q-38 -21 -84.5 -31t-100.5 -10q-68 0 -123.5 18.5t-95 58.5t-61 102.5t-21.5 150.5q0 82 22.5 145t63.5 106t98.5 65.5t126.5 22.5q50 0 94 -11t73 -28l-28 -78q-28 23 -65.5 35t-75.5 12q-112 0 -167.5 -69.5t-55.5 -197.5q0 -262 221 -262q50 0 92 13t65 28z M299 695l-23 41l163 106l34 -66z" />
<glyph unicode="&#x10c;" horiz-adv-x="581" d="M540 31q-38 -21 -84.5 -31t-100.5 -10q-68 0 -123.5 18.5t-95 58.5t-61 102.5t-21.5 150.5q0 82 22.5 145t63.5 106t98.5 65.5t126.5 22.5q50 0 94 -11t73 -28l-28 -78q-28 23 -65.5 35t-75.5 12q-112 0 -167.5 -69.5t-55.5 -197.5q0 -262 221 -262q50 0 92 13t65 28z M211 802l35 44l107 -82l108 83l34 -43l-122 -99h-43z" />
<glyph unicode="&#xc9;" horiz-adv-x="533" d="M228 695l-23 41l163 106l34 -66zM473 650v-71h-302v-211h269v-69h-269v-228h302v-71h-383v650h383z" />
<glyph unicode="&#xca;" horiz-adv-x="533" d="M473 650v-71h-302v-211h269v-69h-269v-228h302v-71h-383v650h383zM429 748l-35 -44l-109 82l-107 -82l-33 42l121 99h43z" />
<glyph unicode="&#xcb;" horiz-adv-x="533" d="M150 774q0 20 13 33.5t33 13.5t33.5 -13.5t13.5 -33.5t-13.5 -33t-33.5 -13t-33 13t-13 33zM330 774q0 20 13 33.5t33 13.5t33.5 -13.5t13.5 -33.5t-13.5 -33t-33.5 -13t-33 13t-13 33zM473 650v-71h-302v-211h269v-69h-269v-228h302v-71h-383v650h383z" />
<glyph unicode="&#xc8;" horiz-adv-x="533" d="M171 776l34 66l163 -106l-23 -41zM473 650v-71h-302v-211h269v-69h-269v-228h302v-71h-383v650h383z" />
<glyph unicode="&#xcd;" horiz-adv-x="261" d="M171 650v-650h-81v650h81zM81 695l-23 41l163 106l34 -66z" />
<glyph unicode="&#xce;" horiz-adv-x="261" d="M171 650v-650h-81v650h81zM271 748l-35 -44l-109 82l-107 -82l-33 42l121 99h43z" />
<glyph unicode="&#xcf;" horiz-adv-x="261" d="M171 650v-650h-81v650h81zM-6 774q0 20 13 33.5t33 13.5t33.5 -13.5t13.5 -33.5t-13.5 -33t-33.5 -13t-33 13t-13 33zM174 774q0 20 13 33.5t33 13.5t33.5 -13.5t13.5 -33.5t-13.5 -33t-33.5 -13t-33 13t-13 33z" />
<glyph unicode="&#xcc;" horiz-adv-x="261" d="M172 650v-650h-81v650h81zM-8 776l34 66l163 -106l-23 -41z" />
<glyph unicode="&#x13f;" horiz-adv-x="478" d="M174 650v-579h280v-71h-361v650h81zM333 346q0 24 14 36.5t38 12.5q23 0 38 -11.5t15 -37.5q0 -25 -14.5 -37t-38.5 -12q-52 0 -52 49z" />
<glyph unicode="&#x141;" horiz-adv-x="473" d="M177 650v-299l102 56l26 -50l-128 -69v-217h280v-71h-361v244l-60 -32l-25 49l85 46v343h81z" />
<glyph unicode="&#xd1;" horiz-adv-x="702" d="M208 755q46 62 97 62q19 0 35.5 -4.5t31.5 -10t30 -10t30 -4.5q14 0 31 6t34 26l27 -31q-20 -28 -44 -44.5t-52 -16.5q-16 0 -31.5 5t-31 10.5t-31 10.5t-30.5 5q-22 0 -39 -9.5t-29 -23.5zM168 0h-78v650h85l260 -373l102 -152l-1 126v399h77v-650h-81l-261 375 l-104 156l1 -144v-387z" />
<glyph unicode="&#x143;" horiz-adv-x="702" d="M316 695l-23 41l163 106l34 -66zM168 0h-78v650h85l260 -373l102 -152l-1 126v399h77v-650h-81l-261 375l-104 156l1 -144v-387z" />
<glyph unicode="&#xd2;" d="M225 776l34 66l163 -106l-23 -41zM352 659q143 0 219 -87t76 -248q0 -73 -21 -134t-60 -105.5t-94.5 -69.5t-124.5 -25q-72 0 -127 23t-91.5 66t-55.5 104.5t-19 138.5q0 73 20.5 135t58.5 107t93.5 70t125.5 25zM347 60q54 0 94 19t66.5 53.5t39.5 83t13 108.5 q0 127 -49.5 196t-158.5 69q-111 0 -161.5 -69.5t-50.5 -197.5q0 -61 11 -109.5t36 -82.5t64.5 -52t95.5 -18z" />
<glyph unicode="&#xd6;" d="M210 774q0 20 13 33.5t33 13.5t33.5 -13.5t13.5 -33.5t-13.5 -33t-33.5 -13t-33 13t-13 33zM390 774q0 20 13 33.5t33 13.5t33.5 -13.5t13.5 -33.5t-13.5 -33t-33.5 -13t-33 13t-13 33zM352 659q143 0 219 -87t76 -248q0 -73 -21 -134t-60 -105.5t-94.5 -69.5t-124.5 -25 q-72 0 -127 23t-91.5 66t-55.5 104.5t-19 138.5q0 73 20.5 135t58.5 107t93.5 70t125.5 25zM347 60q54 0 94 19t66.5 53.5t39.5 83t13 108.5q0 127 -49.5 196t-158.5 69q-111 0 -161.5 -69.5t-50.5 -197.5q0 -61 11 -109.5t36 -82.5t64.5 -52t95.5 -18z" />
<glyph unicode="&#xd5;" d="M195 755q46 62 97 62q19 0 35.5 -4.5t31.5 -10t30 -10t30 -4.5q14 0 31 6t34 26l27 -31q-20 -28 -44 -44.5t-52 -16.5q-16 0 -31.5 5t-31 10.5t-31 10.5t-30.5 5q-22 0 -39 -9.5t-29 -23.5zM352 659q143 0 219 -87t76 -248q0 -73 -21 -134t-60 -105.5t-94.5 -69.5 t-124.5 -25q-72 0 -127 23t-91.5 66t-55.5 104.5t-19 138.5q0 73 20.5 135t58.5 107t93.5 70t125.5 25zM347 60q54 0 94 19t66.5 53.5t39.5 83t13 108.5q0 127 -49.5 196t-158.5 69q-111 0 -161.5 -69.5t-50.5 -197.5q0 -61 11 -109.5t36 -82.5t64.5 -52t95.5 -18z" />
<glyph unicode="&#xd3;" d="M302 695l-23 41l163 106l34 -66zM352 659q143 0 219 -87t76 -248q0 -73 -21 -134t-60 -105.5t-94.5 -69.5t-124.5 -25q-72 0 -127 23t-91.5 66t-55.5 104.5t-19 138.5q0 73 20.5 135t58.5 107t93.5 70t125.5 25zM347 60q54 0 94 19t66.5 53.5t39.5 83t13 108.5 q0 127 -49.5 196t-158.5 69q-111 0 -161.5 -69.5t-50.5 -197.5q0 -61 11 -109.5t36 -82.5t64.5 -52t95.5 -18z" />
<glyph unicode="&#xd4;" d="M352 659q143 0 219 -87t76 -248q0 -73 -21 -134t-60 -105.5t-94.5 -69.5t-124.5 -25q-72 0 -127 23t-91.5 66t-55.5 104.5t-19 138.5q0 73 20.5 135t58.5 107t93.5 70t125.5 25zM347 60q54 0 94 19t66.5 53.5t39.5 83t13 108.5q0 127 -49.5 196t-158.5 69 q-111 0 -161.5 -69.5t-50.5 -197.5q0 -61 11 -109.5t36 -82.5t64.5 -52t95.5 -18zM500 748l-35 -44l-109 82l-107 -82l-33 42l121 99h43z" />
<glyph unicode="&#xd8;" d="M353 659q114 0 185 -56l40 49h73l-72 -90q69 -87 69 -238q0 -73 -21 -134t-60 -105.5t-94.5 -69.5t-124.5 -25q-113 0 -185 57l-40 -50h-73l73 90q-68 86 -68 235q0 73 20.5 135t58.5 107t93.5 70t125.5 25zM141 322q0 -52 8 -95t25 -76l316 392q-51 46 -137 46 q-111 0 -161.5 -69.5t-50.5 -197.5zM348 60q54 0 94 19t66.5 53.5t39.5 83t13 108.5q0 106 -35 173l-316 -392q25 -22 59 -33.5t79 -11.5z" />
<glyph unicode="&#x1fe;" d="M353 659q114 0 185 -56l40 49h73l-72 -90q69 -87 69 -238q0 -73 -21 -134t-60 -105.5t-94.5 -69.5t-124.5 -25q-113 0 -185 57l-40 -50h-73l73 90q-68 86 -68 235q0 73 20.5 135t58.5 107t93.5 70t125.5 25zM141 322q0 -52 8 -95t25 -76l316 392q-51 46 -137 46 q-111 0 -161.5 -69.5t-50.5 -197.5zM348 60q54 0 94 19t66.5 53.5t39.5 83t13 108.5q0 106 -35 173l-316 -392q25 -22 59 -33.5t79 -11.5zM317 695l-23 41l163 106l34 -66z" />
<glyph unicode="&#x158;" horiz-adv-x="577" d="M90 650h186q124 0 176 -51t52 -148q0 -68 -32 -114.5t-88 -67.5l159 -269h-96l-144 252h-132v-252h-81v650zM278 322q30 0 55.5 6t44 20.5t29.5 39t11 60.5q0 72 -33.5 101.5t-110.5 29.5h-103v-257h107zM135 802l35 44l107 -82l108 83l34 -43l-122 -99h-43z" />
<glyph unicode="&#x15a;" horiz-adv-x="504" d="M239 59q25 0 48.5 6t42.5 19t30.5 32t11.5 45q0 42 -23 67.5t-58 44t-75.5 34.5t-75.5 38.5t-58 56t-23 86.5q0 38 15.5 69.5t42.5 54t63.5 35t78.5 12.5q55 0 98.5 -13t74.5 -31l-25 -80q-23 21 -62 37.5t-81 16.5q-56 0 -88 -25t-32 -69q0 -38 23.5 -61.5t58 -41 t75.5 -33.5t75.5 -39.5t58 -59t23.5 -91.5q0 -40 -17 -73t-47 -56.5t-70 -36.5t-86 -13q-60 0 -109.5 18t-81.5 38l27 80q14 -12 33 -24t41 -21.5t45 -15.5t46 -6zM199 695l-23 41l163 106l34 -66z" />
<glyph unicode="&#x160;" horiz-adv-x="504" d="M239 59q25 0 48.5 6t42.5 19t30.5 32t11.5 45q0 42 -23 67.5t-58 44t-75.5 34.5t-75.5 38.5t-58 56t-23 86.5q0 38 15.5 69.5t42.5 54t63.5 35t78.5 12.5q55 0 98.5 -13t74.5 -31l-25 -80q-23 21 -62 37.5t-81 16.5q-56 0 -88 -25t-32 -69q0 -38 23.5 -61.5t58 -41 t75.5 -33.5t75.5 -39.5t58 -59t23.5 -91.5q0 -40 -17 -73t-47 -56.5t-70 -36.5t-86 -13q-60 0 -109.5 18t-81.5 38l27 80q14 -12 33 -24t41 -21.5t45 -15.5t46 -6zM114 802l35 44l107 -82l108 83l34 -43l-122 -99h-43z" />
<glyph unicode="&#xda;" horiz-adv-x="674" d="M291 695l-23 41l163 106l34 -66zM511 650h80v-407q0 -56 -14.5 -102.5t-45 -80t-79 -52t-116.5 -18.5t-116 16t-78 47.5t-44 77t-14 104.5v415h81v-406q0 -53 10.5 -88.5t31.5 -57t53.5 -30.5t77.5 -9q91 0 132 44.5t41 147.5v399z" />
<glyph unicode="&#xdb;" horiz-adv-x="674" d="M511 650h80v-407q0 -56 -14.5 -102.5t-45 -80t-79 -52t-116.5 -18.5t-116 16t-78 47.5t-44 77t-14 104.5v415h81v-406q0 -53 10.5 -88.5t31.5 -57t53.5 -30.5t77.5 -9q91 0 132 44.5t41 147.5v399zM481 748l-35 -44l-109 82l-107 -82l-33 42l121 99h43z" />
<glyph unicode="&#xd9;" horiz-adv-x="674" d="M214 776l34 66l163 -106l-23 -41zM511 650h80v-407q0 -56 -14.5 -102.5t-45 -80t-79 -52t-116.5 -18.5t-116 16t-78 47.5t-44 77t-14 104.5v415h81v-406q0 -53 10.5 -88.5t31.5 -57t53.5 -30.5t77.5 -9q91 0 132 44.5t41 147.5v399z" />
<glyph unicode="&#xdc;" horiz-adv-x="674" d="M200 774q0 20 13 33.5t33 13.5t33.5 -13.5t13.5 -33.5t-13.5 -33t-33.5 -13t-33 13t-13 33zM380 774q0 20 13 33.5t33 13.5t33.5 -13.5t13.5 -33.5t-13.5 -33t-33.5 -13t-33 13t-13 33zM511 650h80v-407q0 -56 -14.5 -102.5t-45 -80t-79 -52t-116.5 -18.5t-116 16 t-78 47.5t-44 77t-14 104.5v415h81v-406q0 -53 10.5 -88.5t31.5 -57t53.5 -30.5t77.5 -9q91 0 132 44.5t41 147.5v399z" />
<glyph unicode="&#x178;" horiz-adv-x="524" d="M267 317l80 167l83 166h81l-206 -399v-251h-81v251l-221 399h87l90 -165zM311 774q0 20 13 33.5t33 13.5t33.5 -13.5t13.5 -33.5t-13.5 -33t-33.5 -13t-33 13t-13 33zM131 774q0 20 13 33.5t33 13.5t33.5 -13.5t13.5 -33.5t-13.5 -33t-33.5 -13t-33 13t-13 33z" />
<glyph unicode="&#xdd;" horiz-adv-x="524" d="M267 317l80 167l83 166h81l-206 -399v-251h-81v251l-221 399h87l90 -165zM212 695l-23 41l163 106l34 -66z" />
<glyph unicode="&#xde;" horiz-adv-x="552" d="M171 650v-90h111q62 0 105 -14t70 -40.5t39.5 -65t12.5 -87.5q0 -50 -16 -89.5t-45 -66.5t-69.5 -41.5t-89.5 -14.5h-118v-141h-81v650h81zM284 212q30 0 55.5 7t44 23.5t29 42.5t10.5 64q0 71 -32.5 106t-110.5 35h-109v-278h113z" />
<glyph unicode="&#xd0;" horiz-adv-x="674" d="M92 299h-69v64h69v287h226q85 0 143 -26t92.5 -70t49.5 -101.5t15 -120.5q0 -70 -13 -130.5t-47.5 -105.5t-94 -70.5t-151.5 -25.5h-220v299zM173 579v-216h128v-64h-128v-228h148q67 0 108.5 19.5t64 53.5t30 79.5t7.5 98.5q0 49 -9.5 95.5t-33.5 82.5t-65.5 57.5 t-105.5 21.5h-144z" />
<glyph unicode="&#x132;" horiz-adv-x="522" d="M171 650v-650h-81v650h81zM434 53q0 -81 -43.5 -136t-127.5 -75l-25 68q26 7 47 18.5t36 28.5t23.5 42t8.5 61v590h81v-597z" />
<glyph unicode="&#x152;" horiz-adv-x="867" d="M352 659q45 0 84 -9h371v-71h-302v-211h268v-69h-268v-228h302v-71h-374q-21 -5 -43 -7.5t-43 -2.5q-72 0 -127 23t-91.5 66t-55.5 104.5t-19 138.5q0 73 20.5 135t58.5 107t93.5 70t125.5 25zM347 58q20 0 39.5 2.5t37.5 7.5v511q-31 10 -72 10q-111 0 -161.5 -69.5 t-50.5 -197.5q0 -61 11 -109.5t36 -83t64.5 -53t95.5 -18.5z" />
<glyph unicode="&#xe1;" horiz-adv-x="491" d="M329 208q-16 2 -34 4t-38 2q-25 0 -49 -3.5t-43 -13t-31 -25.5t-12 -41q0 -39 24 -58.5t62 -19.5q35 0 68 19.5t53 42.5v93zM330 327q0 57 -25 77.5t-68 20.5q-15 0 -33.5 -3.5t-33 -12.5t-22 -25.5t0.5 -43.5l-72 -9q-6 19 -6 37q0 27 14 49.5t38 38.5t55.5 24.5 t66.5 8.5q31 0 60.5 -7t52.5 -24.5t36.5 -47t13.5 -73.5l-1 -231q0 -38 16 -47t35 -3l6 -59q-24 -7 -46 -7q-37 0 -58 18.5t-26 49.5q-38 -41 -77.5 -54.5t-74.5 -13.5q-64 0 -103 36.5t-39 96.5q0 43 19 70.5t50 43.5t70 22t78 6q19 0 37 -1t35 -3zM209 549l-33 34l129 134 l48 -53z" />
<glyph unicode="&#xe0;" horiz-adv-x="491" d="M329 208q-16 2 -34 4t-38 2q-25 0 -49 -3.5t-43 -13t-31 -25.5t-12 -41q0 -39 24 -58.5t62 -19.5q35 0 68 19.5t53 42.5v93zM330 327q0 57 -25 77.5t-68 20.5q-15 0 -33.5 -3.5t-33 -12.5t-22 -25.5t0.5 -43.5l-72 -9q-6 19 -6 37q0 27 14 49.5t38 38.5t55.5 24.5 t66.5 8.5q31 0 60.5 -7t52.5 -24.5t36.5 -47t13.5 -73.5l-1 -231q0 -38 16 -47t35 -3l6 -59q-24 -7 -46 -7q-37 0 -58 18.5t-26 49.5q-38 -41 -77.5 -54.5t-74.5 -13.5q-64 0 -103 36.5t-39 96.5q0 43 19 70.5t50 43.5t70 22t78 6q19 0 37 -1t35 -3zM111 664l49 53l128 -134 l-33 -34z" />
<glyph unicode="&#xe2;" horiz-adv-x="491" d="M329 208q-16 2 -34 4t-38 2q-25 0 -49 -3.5t-43 -13t-31 -25.5t-12 -41q0 -39 24 -58.5t62 -19.5q35 0 68 19.5t53 42.5v93zM330 327q0 57 -25 77.5t-68 20.5q-15 0 -33.5 -3.5t-33 -12.5t-22 -25.5t0.5 -43.5l-72 -9q-6 19 -6 37q0 27 14 49.5t38 38.5t55.5 24.5 t66.5 8.5q31 0 60.5 -7t52.5 -24.5t36.5 -47t13.5 -73.5l-1 -231q0 -38 16 -47t35 -3l6 -59q-24 -7 -46 -7q-37 0 -58 18.5t-26 49.5q-38 -41 -77.5 -54.5t-74.5 -13.5q-64 0 -103 36.5t-39 96.5q0 43 19 70.5t50 43.5t70 22t78 6q19 0 37 -1t35 -3zM384 581l-42 -41 l-104 97l-104 -98l-41 39l125 119h43z" />
<glyph unicode="&#xe4;" horiz-adv-x="491" d="M329 208q-16 2 -34 4t-38 2q-25 0 -49 -3.5t-43 -13t-31 -25.5t-12 -41q0 -39 24 -58.5t62 -19.5q35 0 68 19.5t53 42.5v93zM330 327q0 57 -25 77.5t-68 20.5q-15 0 -33.5 -3.5t-33 -12.5t-22 -25.5t0.5 -43.5l-72 -9q-6 19 -6 37q0 27 14 49.5t38 38.5t55.5 24.5 t66.5 8.5q31 0 60.5 -7t52.5 -24.5t36.5 -47t13.5 -73.5l-1 -231q0 -38 16 -47t35 -3l6 -59q-24 -7 -46 -7q-37 0 -58 18.5t-26 49.5q-38 -41 -77.5 -54.5t-74.5 -13.5q-64 0 -103 36.5t-39 96.5q0 43 19 70.5t50 43.5t70 22t78 6q19 0 37 -1t35 -3zM102 626q0 20 13 33.5 t33 13.5t33.5 -13.5t13.5 -33.5t-13.5 -33t-33.5 -13t-33 13t-13 33zM277 626q0 20 13 33.5t33 13.5t33.5 -13.5t13.5 -33.5t-13.5 -33t-33.5 -13t-33 13t-13 33z" />
<glyph unicode="&#xe3;" horiz-adv-x="491" d="M329 208q-16 2 -34 4t-38 2q-25 0 -49 -3.5t-43 -13t-31 -25.5t-12 -41q0 -39 24 -58.5t62 -19.5q35 0 68 19.5t53 42.5v93zM330 327q0 57 -25 77.5t-68 20.5q-15 0 -33.5 -3.5t-33 -12.5t-22 -25.5t0.5 -43.5l-72 -9q-6 19 -6 37q0 27 14 49.5t38 38.5t55.5 24.5 t66.5 8.5q31 0 60.5 -7t52.5 -24.5t36.5 -47t13.5 -73.5l-1 -231q0 -38 16 -47t35 -3l6 -59q-24 -7 -46 -7q-37 0 -58 18.5t-26 49.5q-38 -41 -77.5 -54.5t-74.5 -13.5q-64 0 -103 36.5t-39 96.5q0 43 19 70.5t50 43.5t70 22t78 6q19 0 37 -1t35 -3zM85 610q48 62 97 62 q19 0 33.5 -4.5t27 -10t25 -10t27.5 -4.5q14 0 31 5.5t34 25.5l27 -30q-20 -29 -44 -45t-52 -16q-16 0 -29.5 4.5t-26 10.5t-25.5 10.5t-28 4.5q-22 0 -39 -9t-29 -24z" />
<glyph unicode="&#xe5;" horiz-adv-x="491" d="M329 208q-16 2 -34 4t-38 2q-25 0 -49 -3.5t-43 -13t-31 -25.5t-12 -41q0 -39 24 -58.5t62 -19.5q35 0 68 19.5t53 42.5v93zM330 327q0 57 -25 77.5t-68 20.5q-15 0 -33.5 -3.5t-33 -12.5t-22 -25.5t0.5 -43.5l-72 -9q-6 19 -6 37q0 27 14 49.5t38 38.5t55.5 24.5 t66.5 8.5q31 0 60.5 -7t52.5 -24.5t36.5 -47t13.5 -73.5l-1 -231q0 -38 16 -47t35 -3l6 -59q-24 -7 -46 -7q-37 0 -58 18.5t-26 49.5q-38 -41 -77.5 -54.5t-74.5 -13.5q-64 0 -103 36.5t-39 96.5q0 43 19 70.5t50 43.5t70 22t78 6q19 0 37 -1t35 -3zM235 542 q-46 0 -74.5 26.5t-28.5 71.5t31 70.5t74 25.5q45 0 73.5 -24.5t28.5 -71.5q0 -41 -28 -69.5t-76 -28.5zM235 583q29 0 41 15t12 42q0 26 -12 41t-41 15q-28 0 -41 -15t-13 -41q0 -28 14 -42.5t40 -14.5z" />
<glyph unicode="&#xe6;" horiz-adv-x="770" d="M237 424q-15 0 -33.5 -3t-33 -12t-22 -25.5t0.5 -43.5l-72 -9q-6 19 -6 37q0 27 14 49.5t38 38.5t55.5 24.5t66.5 8.5q42 0 81 -15t59 -55q28 34 66 52t83 18q44 0 79 -13t59.5 -40.5t37.5 -71.5t13 -106v-30h-317q6 -173 160 -173q40 0 74 16.5t54 32.5l22 -66 q-31 -19 -72.5 -33.5t-94.5 -14.5q-61 0 -108.5 21t-76.5 66q-45 -48 -88 -67.5t-94 -19.5q-64 0 -103 36.5t-39 96.5q0 43 19 70t49.5 43t69.5 22t78 6q36 0 68 -3q0 11 2 25t4 24v21q0 55 -26 74t-67 19zM643 283q2 68 -25 106t-84 38q-116 0 -128 -144h237zM122 131 q0 -39 24 -58.5t62 -19.5q43 0 78 22.5t55 46.5q-14 39 -17 86q-15 2 -32.5 3.5t-35.5 1.5q-25 0 -49 -3.5t-43 -12.5t-30.5 -25t-11.5 -41z" />
<glyph unicode="&#x1fd;" horiz-adv-x="770" d="M237 424q-15 0 -33.5 -3t-33 -12t-22 -25.5t0.5 -43.5l-72 -9q-6 19 -6 37q0 27 14 49.5t38 38.5t55.5 24.5t66.5 8.5q42 0 81 -15t59 -55q28 34 66 52t83 18q44 0 79 -13t59.5 -40.5t37.5 -71.5t13 -106v-30h-317q6 -173 160 -173q40 0 74 16.5t54 32.5l22 -66 q-31 -19 -72.5 -33.5t-94.5 -14.5q-61 0 -108.5 21t-76.5 66q-45 -48 -88 -67.5t-94 -19.5q-64 0 -103 36.5t-39 96.5q0 43 19 70t49.5 43t69.5 22t78 6q36 0 68 -3q0 11 2 25t4 24v21q0 55 -26 74t-67 19zM643 283q2 68 -25 106t-84 38q-116 0 -128 -144h237zM122 131 q0 -39 24 -58.5t62 -19.5q43 0 78 22.5t55 46.5q-14 39 -17 86q-15 2 -32.5 3.5t-35.5 1.5q-25 0 -49 -3.5t-43 -12.5t-30.5 -25t-11.5 -41zM383 549l-33 34l129 134l48 -53z" />
<glyph unicode="&#xe7;" horiz-adv-x="458" d="M188 -153q9 -11 27 -19t38 -8q26 0 38.5 10.5t12.5 26.5q0 21 -21 35.5t-65 16.5l23 83q-89 8 -141 69.5t-52 170.5q0 63 17.5 111t49 80.5t74 49t92.5 16.5q43 0 76 -8.5t62 -23.5l-25 -74q-26 19 -53 29t-59 10q-73 0 -111.5 -49t-38.5 -140q0 -84 39.5 -130.5 t114.5 -46.5q33 0 62 12.5t48 28.5l22 -67q-27 -17 -61.5 -27t-67.5 -12l-13 -49q47 -8 69 -32.5t22 -53.5q0 -36 -31.5 -60.5t-81.5 -24.5q-26 0 -49.5 7.5t-37.5 16.5z" />
<glyph unicode="&#x107;" horiz-adv-x="459" d="M224 549l-33 34l129 134l48 -53zM132 233q0 -84 39.5 -130.5t114.5 -46.5q33 0 62 12.5t48 28.5l22 -67q-31 -20 -71 -30t-77 -10q-50 0 -91 16t-70 46.5t-45 75.5t-16 104q0 63 17.5 111t49 80.5t74 49t92.5 16.5q43 0 76 -8.5t62 -23.5l-25 -74q-26 19 -53 29t-59 10 q-73 0 -111.5 -49t-38.5 -140z" />
<glyph unicode="&#x10d;" horiz-adv-x="459" d="M119 656l43 41l105 -99l103 99l40 -39l-122 -119h-43zM132 233q0 -84 39.5 -130.5t114.5 -46.5q33 0 62 12.5t48 28.5l22 -67q-31 -20 -71 -30t-77 -10q-50 0 -91 16t-70 46.5t-45 75.5t-16 104q0 63 17.5 111t49 80.5t74 49t92.5 16.5q43 0 76 -8.5t62 -23.5l-25 -74 q-26 19 -53 29t-59 10q-73 0 -111.5 -49t-38.5 -140z" />
<glyph unicode="&#xe9;" horiz-adv-x="495" d="M291 55q41 0 75 16.5t53 32.5l22 -66q-30 -19 -72 -33.5t-95 -14.5q-50 0 -91.5 15t-71.5 45.5t-46.5 77.5t-16.5 112q0 59 16.5 105.5t45 78.5t67.5 48.5t83 16.5t79 -13t59 -40.5t37 -71.5t13 -106v-30h-318q3 -88 44.5 -130.5t116.5 -42.5zM368 283q2 68 -25 106 t-84 38q-115 0 -127 -144h236zM228 549l-33 34l129 134l48 -53z" />
<glyph unicode="&#xe8;" horiz-adv-x="495" d="M291 55q41 0 75 16.5t53 32.5l22 -66q-30 -19 -72 -33.5t-95 -14.5q-50 0 -91.5 15t-71.5 45.5t-46.5 77.5t-16.5 112q0 59 16.5 105.5t45 78.5t67.5 48.5t83 16.5t79 -13t59 -40.5t37 -71.5t13 -106v-30h-318q3 -88 44.5 -130.5t116.5 -42.5zM368 283q2 68 -25 106 t-84 38q-115 0 -127 -144h236zM139 664l49 53l128 -134l-33 -34z" />
<glyph unicode="&#xea;" horiz-adv-x="495" d="M291 55q41 0 75 16.5t53 32.5l22 -66q-30 -19 -72 -33.5t-95 -14.5q-50 0 -91.5 15t-71.5 45.5t-46.5 77.5t-16.5 112q0 59 16.5 105.5t45 78.5t67.5 48.5t83 16.5t79 -13t59 -40.5t37 -71.5t13 -106v-30h-318q3 -88 44.5 -130.5t116.5 -42.5zM368 283q2 68 -25 106 t-84 38q-115 0 -127 -144h236zM407 581l-42 -41l-104 97l-104 -98l-41 39l125 119h43z" />
<glyph unicode="&#xeb;" horiz-adv-x="495" d="M291 55q41 0 75 16.5t53 32.5l22 -66q-30 -19 -72 -33.5t-95 -14.5q-50 0 -91.5 15t-71.5 45.5t-46.5 77.5t-16.5 112q0 59 16.5 105.5t45 78.5t67.5 48.5t83 16.5t79 -13t59 -40.5t37 -71.5t13 -106v-30h-318q3 -88 44.5 -130.5t116.5 -42.5zM368 283q2 68 -25 106 t-84 38q-115 0 -127 -144h236zM123 626q0 20 13 33.5t33 13.5t33.5 -13.5t13.5 -33.5t-13.5 -33t-33.5 -13t-33 13t-13 33zM298 626q0 20 13 33.5t33 13.5t33.5 -13.5t13.5 -33.5t-13.5 -33t-33.5 -13t-33 13t-13 33z" />
<glyph unicode="&#xed;" horiz-adv-x="227" d="M80 549l-33 34l129 134l48 -53zM154 0h-80v477h80v-477z" />
<glyph unicode="&#xec;" horiz-adv-x="227" d="M157 0h-80v477h80v-477zM-7 664l49 53l128 -134l-33 -34z" />
<glyph unicode="&#xee;" horiz-adv-x="227" d="M258 581l-42 -41l-104 97l-104 -98l-41 39l125 119h43zM154 0h-80v477h80v-477z" />
<glyph unicode="&#xef;" horiz-adv-x="227" d="M-20 626q0 20 13 33.5t33 13.5t33.5 -13.5t13.5 -33.5t-13.5 -33t-33.5 -13t-33 13t-13 33zM155 626q0 20 13 33.5t33 13.5t33.5 -13.5t13.5 -33.5t-13.5 -33t-33.5 -13t-33 13t-13 33zM154 0h-80v477h80v-477z" />
<glyph unicode="&#x140;" horiz-adv-x="283" d="M158 0h-80v685h80v-685zM205 318q0 24 14 36.5t38 12.5q23 0 38 -11.5t15 -37.5q0 -25 -14.5 -37t-38.5 -12q-52 0 -52 49z" />
<glyph unicode="&#x142;" horiz-adv-x="254" d="M164 0h-80v277l-49 -27l-23 47l72 41v347h80v-301l56 32l24 -49l-80 -45v-322z" />
<glyph unicode="&#xf1;" horiz-adv-x="548" d="M154 0h-80v477h75l1 -55q40 35 82.5 51t80.5 16q28 0 57.5 -7t53.5 -25.5t39 -50.5t15 -83v-323h-80v294q0 71 -26 97.5t-77 26.5q-37 0 -73 -16t-68 -42v-360zM124 610q48 62 97 62q19 0 33.5 -4.5t27 -10t25 -10t27.5 -4.5q14 0 31 5.5t34 25.5l27 -30q-20 -29 -44 -45 t-52 -16q-16 0 -29.5 4.5t-26 10.5t-25.5 10.5t-28 4.5q-22 0 -39 -9t-29 -24z" />
<glyph unicode="&#x144;" horiz-adv-x="548" d="M246 549l-33 34l129 134l48 -53zM154 0h-80v477h75l1 -55q40 35 82.5 51t80.5 16q28 0 57.5 -7t53.5 -25.5t39 -50.5t15 -83v-323h-80v294q0 71 -26 97.5t-77 26.5q-37 0 -73 -16t-68 -42v-360z" />
<glyph unicode="&#xf3;" horiz-adv-x="547" d="M237 549l-33 34l129 134l48 -53zM47 240q0 54 15.5 99.5t45 79t71 52t94.5 18.5q110 0 168.5 -65.5t58.5 -183.5q0 -50 -14.5 -95t-43 -79.5t-70.5 -55t-98 -20.5q-107 0 -167 64.5t-60 185.5zM131 240q0 -42 7.5 -76t24 -58t43.5 -37.5t66 -13.5q41 0 69 13.5t45 38.5 t24 58.5t7 74.5q0 37 -7 70.5t-24 59t-45 40t-69 14.5q-40 0 -67 -14.5t-43.5 -39.5t-23.5 -58.5t-7 -71.5z" />
<glyph unicode="&#xf2;" horiz-adv-x="547" d="M47 240q0 54 15.5 99.5t45 79t71 52t94.5 18.5q110 0 168.5 -65.5t58.5 -183.5q0 -50 -14.5 -95t-43 -79.5t-70.5 -55t-98 -20.5q-107 0 -167 64.5t-60 185.5zM131 240q0 -42 7.5 -76t24 -58t43.5 -37.5t66 -13.5q41 0 69 13.5t45 38.5t24 58.5t7 74.5q0 37 -7 70.5 t-24 59t-45 40t-69 14.5q-40 0 -67 -14.5t-43.5 -39.5t-23.5 -58.5t-7 -71.5zM136 664l49 53l128 -134l-33 -34z" />
<glyph unicode="&#xf4;" horiz-adv-x="547" d="M417 581l-42 -41l-104 97l-104 -98l-41 39l125 119h43zM47 240q0 54 15.5 99.5t45 79t71 52t94.5 18.5q110 0 168.5 -65.5t58.5 -183.5q0 -50 -14.5 -95t-43 -79.5t-70.5 -55t-98 -20.5q-107 0 -167 64.5t-60 185.5zM131 240q0 -42 7.5 -76t24 -58t43.5 -37.5t66 -13.5 q41 0 69 13.5t45 38.5t24 58.5t7 74.5q0 37 -7 70.5t-24 59t-45 40t-69 14.5q-40 0 -67 -14.5t-43.5 -39.5t-23.5 -58.5t-7 -71.5z" />
<glyph unicode="&#xf6;" horiz-adv-x="547" d="M135 626q0 20 13 33.5t33 13.5t33.5 -13.5t13.5 -33.5t-13.5 -33t-33.5 -13t-33 13t-13 33zM310 626q0 20 13 33.5t33 13.5t33.5 -13.5t13.5 -33.5t-13.5 -33t-33.5 -13t-33 13t-13 33zM47 240q0 54 15.5 99.5t45 79t71 52t94.5 18.5q110 0 168.5 -65.5t58.5 -183.5 q0 -50 -14.5 -95t-43 -79.5t-70.5 -55t-98 -20.5q-107 0 -167 64.5t-60 185.5zM131 240q0 -42 7.5 -76t24 -58t43.5 -37.5t66 -13.5q41 0 69 13.5t45 38.5t24 58.5t7 74.5q0 37 -7 70.5t-24 59t-45 40t-69 14.5q-40 0 -67 -14.5t-43.5 -39.5t-23.5 -58.5t-7 -71.5z" />
<glyph unicode="&#xf5;" horiz-adv-x="547" d="M47 240q0 54 15.5 99.5t45 79t71 52t94.5 18.5q110 0 168.5 -65.5t58.5 -183.5q0 -50 -14.5 -95t-43 -79.5t-70.5 -55t-98 -20.5q-107 0 -167 64.5t-60 185.5zM131 240q0 -42 7.5 -76t24 -58t43.5 -37.5t66 -13.5q41 0 69 13.5t45 38.5t24 58.5t7 74.5q0 37 -7 70.5 t-24 59t-45 40t-69 14.5q-40 0 -67 -14.5t-43.5 -39.5t-23.5 -58.5t-7 -71.5zM120 610q48 62 97 62q19 0 33.5 -4.5t27 -10t25 -10t27.5 -4.5q14 0 31 5.5t34 25.5l27 -30q-20 -29 -44 -45t-52 -16q-16 0 -29.5 4.5t-26 10.5t-25.5 10.5t-28 4.5q-22 0 -39 -9t-29 -24z" />
<glyph unicode="&#xf8;" horiz-adv-x="548" d="M48 240q0 54 15.5 99.5t45 79t71 52t94.5 18.5q81 0 136 -38l23 30h69l-53 -67q52 -64 52 -174q0 -50 -14.5 -95t-43 -79.5t-70.5 -55t-98 -20.5q-80 0 -134 36l-23 -29h-68l51 65q-53 64 -53 178zM132 240q0 -34 4.5 -62.5t15.5 -51.5l212 268q-35 30 -91 30 q-40 0 -67 -14.5t-43.5 -39.5t-23.5 -58.5t-7 -71.5zM273 55q41 0 69 13.5t45 38.5t24 58.5t7 74.5q0 30 -4.5 58t-15.5 51l-213 -267q33 -27 88 -27z" />
<glyph unicode="&#x1ff;" horiz-adv-x="548" d="M48 240q0 54 15.5 99.5t45 79t71 52t94.5 18.5q81 0 136 -38l23 30h69l-53 -67q52 -64 52 -174q0 -50 -14.5 -95t-43 -79.5t-70.5 -55t-98 -20.5q-80 0 -134 36l-23 -29h-68l51 65q-53 64 -53 178zM132 240q0 -34 4.5 -62.5t15.5 -51.5l212 268q-35 30 -91 30 q-40 0 -67 -14.5t-43.5 -39.5t-23.5 -58.5t-7 -71.5zM273 55q41 0 69 13.5t45 38.5t24 58.5t7 74.5q0 30 -4.5 58t-15.5 51l-213 -267q33 -27 88 -27zM255 549l-33 34l129 134l48 -53z" />
<glyph unicode="&#x159;" horiz-adv-x="346" d="M57 656l43 41l105 -99l103 99l40 -39l-122 -119h-43zM154 0h-80v477h74l2 -84q32 47 69.5 68t75.5 21h16.5t16.5 -1l-6 -81q-18 6 -38 6q-34 0 -67 -19.5t-63 -56.5v-330z" />
<glyph unicode="&#x15b;" horiz-adv-x="419" d="M175 549l-33 34l129 134l48 -53zM297 126q0 27 -18 43.5t-45.5 29t-59 23.5t-59 27.5t-45.5 41t-18 64.5q0 36 16 61.5t40 41.5t53 23.5t55 7.5q48 0 82 -9.5t64 -26.5l-23 -72q-12 14 -43 29t-77 15q-13 0 -28 -3t-28 -11t-22 -21t-9 -32q0 -22 18 -37t45.5 -26.5 t59.5 -24t59.5 -30t45.5 -43.5t18 -65q0 -40 -16.5 -67.5t-42.5 -44t-59.5 -23.5t-67.5 -7q-42 0 -82 11.5t-69 28.5l23 73q9 -8 22.5 -17t30.5 -16t36 -11.5t38 -4.5q46 0 76 15.5t30 56.5z" />
<glyph unicode="&#x161;" horiz-adv-x="419" d="M67 656l43 41l105 -99l103 99l40 -39l-122 -119h-43zM297 126q0 27 -18 43.5t-45.5 29t-59 23.5t-59 27.5t-45.5 41t-18 64.5q0 36 16 61.5t40 41.5t53 23.5t55 7.5q48 0 82 -9.5t64 -26.5l-23 -72q-12 14 -43 29t-77 15q-13 0 -28 -3t-28 -11t-22 -21t-9 -32 q0 -22 18 -37t45.5 -26.5t59.5 -24t59.5 -30t45.5 -43.5t18 -65q0 -40 -16.5 -67.5t-42.5 -44t-59.5 -23.5t-67.5 -7q-42 0 -82 11.5t-69 28.5l23 73q9 -8 22.5 -17t30.5 -16t36 -11.5t38 -4.5q46 0 76 15.5t30 56.5z" />
<glyph unicode="&#xdf;" horiz-adv-x="629" d="M364 356q0 -23 17.5 -37.5t44 -26t57 -23.5t57 -29t44 -43t17.5 -65q0 -40 -16.5 -67.5t-42.5 -44t-59 -23.5t-67 -7q-42 0 -82.5 11.5t-69.5 28.5l23 73q9 -8 22.5 -17t31 -16t36.5 -11.5t38 -4.5q45 0 75 15.5t30 56.5q0 27 -17.5 44t-43.5 29t-56.5 23t-56.5 26.5 t-43.5 39t-17.5 60.5q0 27 9.5 48t24 38t31.5 31t31.5 27t24 26.5t9.5 30.5q0 35 -25 58t-80 23q-59 0 -92 -34t-33 -109v-487h-79v410h-78v56l78 5v21q0 53 17 91.5t46 63t66.5 36.5t78.5 12q94 0 139.5 -39t45.5 -103q0 -32 -21 -55.5t-46.5 -45t-46.5 -44t-21 -52.5z" />
<glyph unicode="&#xfa;" horiz-adv-x="545" d="M249 549l-33 34l129 134l48 -53zM392 477h79v-477h-73l-2 56q-41 -35 -81.5 -51t-78.5 -16q-29 0 -58.5 6.5t-53.5 24.5t-39 50.5t-15 84.5v322h80v-296q0 -72 26 -98t76 -26q37 0 72.5 17.5t67.5 43.5v359z" />
<glyph unicode="&#xf9;" horiz-adv-x="545" d="M392 477h79v-477h-73l-2 56q-41 -35 -81.5 -51t-78.5 -16q-29 0 -58.5 6.5t-53.5 24.5t-39 50.5t-15 84.5v322h80v-296q0 -72 26 -98t76 -26q37 0 72.5 17.5t67.5 43.5v359zM150 664l49 53l128 -134l-33 -34z" />
<glyph unicode="&#xfb;" horiz-adv-x="545" d="M415 581l-42 -41l-104 97l-104 -98l-41 39l125 119h43zM392 477h79v-477h-73l-2 56q-41 -35 -81.5 -51t-78.5 -16q-29 0 -58.5 6.5t-53.5 24.5t-39 50.5t-15 84.5v322h80v-296q0 -72 26 -98t76 -26q37 0 72.5 17.5t67.5 43.5v359z" />
<glyph unicode="&#xfc;" horiz-adv-x="545" d="M143 626q0 20 13 33.5t33 13.5t33.5 -13.5t13.5 -33.5t-13.5 -33t-33.5 -13t-33 13t-13 33zM318 626q0 20 13 33.5t33 13.5t33.5 -13.5t13.5 -33.5t-13.5 -33t-33.5 -13t-33 13t-13 33zM392 477h79v-477h-73l-2 56q-41 -35 -81.5 -51t-78.5 -16q-29 0 -58.5 6.5 t-53.5 24.5t-39 50.5t-15 84.5v322h80v-296q0 -72 26 -98t76 -26q37 0 72.5 17.5t67.5 43.5v359z" />
<glyph unicode="&#xff;" horiz-adv-x="492" d="M205 -220h-76l78 206l-190 491h83l101 -260l50 -136l48 135l98 261h78zM117 626q0 20 13 33.5t33 13.5t33.5 -13.5t13.5 -33.5t-13.5 -33t-33.5 -13t-33 13t-13 33zM292 626q0 20 13 33.5t33 13.5t33.5 -13.5t13.5 -33.5t-13.5 -33t-33.5 -13t-33 13t-13 33z" />
<glyph unicode="&#xfd;" horiz-adv-x="492" d="M205 -220h-76l78 206l-190 491h83l101 -260l50 -136l48 135l98 261h78zM226 549l-33 34l129 134l48 -53z" />
<glyph unicode="&#xfe;" horiz-adv-x="547" d="M253 -10q-48 0 -100 15v-225h-79v905h79v-265q32 31 70.5 50t79.5 19q48 0 85 -17.5t61.5 -49t37.5 -75.5t13 -98q0 -60 -18 -107.5t-50.5 -81.5t-78 -52t-100.5 -18zM153 81q23 -14 46 -19.5t51 -5.5q79 0 122.5 49t43.5 137q0 90 -37 133t-96 43q-32 0 -65.5 -16 t-64.5 -44v-277z" />
<glyph unicode="&#xf0;" horiz-adv-x="550" d="M48 240q0 53 15 97.5t43.5 76.5t68.5 50t91 18q26 0 53.5 -7t48.5 -21q-43 71 -103 122l-56 -62l-40 31l54 61l-28 18t-30 17l37 50q33 -16 65 -35l51 57l41 -33l-48 -53q89 -66 138.5 -159t51.5 -217v-11q0 -50 -14.5 -95t-43 -79.5t-71 -55t-98.5 -20.5 q-107 0 -166.5 64.5t-59.5 185.5zM132 240q0 -42 7.5 -76t24 -58t43.5 -37.5t66 -13.5q40 0 67.5 13t44.5 37t24.5 57t7.5 72q0 44 -5 80t-15 66q-22 18 -55.5 29.5t-66.5 11.5q-41 0 -68 -14t-44 -38.5t-24 -57.5t-7 -71z" />
<glyph unicode="&#x133;" horiz-adv-x="454" d="M154 0h-80v477h80v-477zM66 640q0 21 14 35.5t35 14.5t36 -14.5t15 -35.5t-15 -35.5t-36 -14.5t-35 14.5t-14 35.5zM302 477h80v-491q0 -62 -21 -102.5t-52.5 -64.5t-68.5 -34t-69 -9l-12 68q26 1 51.5 7t46 22.5t33 44.5t12.5 72v487zM294 640q0 21 14 35.5t35 14.5 t36 -14.5t15 -35.5t-15 -35.5t-36 -14.5t-35 14.5t-14 35.5z" />
<glyph unicode="&#x153;" horiz-adv-x="867" d="M47 240q0 54 15.5 99.5t45 79t71 52t94.5 18.5q66 0 112.5 -24t75.5 -69q29 45 73 69t98 24q44 0 79 -13t59 -40.5t37 -71.5t13 -106v-30h-318q3 -88 44.5 -130.5t116.5 -42.5q41 0 75 16.5t53 32.5l22 -66q-30 -19 -72 -33.5t-95 -14.5q-63 0 -111.5 23t-77.5 71 q-29 -43 -74.5 -68.5t-108.5 -25.5q-107 0 -167 64.5t-60 185.5zM131 240q0 -42 7.5 -76t24 -58t43.5 -37.5t66 -13.5q41 0 69 13.5t45 38.5t24 58.5t7 74.5q0 37 -7 70.5t-24 59t-45 40t-69 14.5q-40 0 -67 -14.5t-43.5 -39.5t-23.5 -58.5t-7 -71.5zM740 283q2 68 -25 106 t-84 38q-115 0 -127 -144h236z" />
<glyph unicode="," horiz-adv-x="227" d="M152 78q-3 -57 -23.5 -113t-52.5 -104l-52 15q26 51 40 99.5t16 102.5h72z" />
<glyph unicode="." horiz-adv-x="240" d="M68 39q0 24 14 36.5t38 12.5q23 0 38 -11.5t15 -37.5q0 -25 -14.5 -37t-38.5 -12q-52 0 -52 49z" />
<glyph unicode=":" horiz-adv-x="248" d="M72 39q0 24 14.5 36.5t37.5 12.5t38 -11.5t15 -37.5q0 -25 -14.5 -37t-38.5 -12q-52 0 -52 49zM72 392q0 23 14.5 35.5t37.5 12.5t38 -11.5t15 -36.5t-14.5 -37.5t-38.5 -12.5q-52 0 -52 50z" />
<glyph unicode=";" horiz-adv-x="268" d="M89 392q0 23 14.5 35.5t37.5 12.5t38 -11.5t15 -36.5t-14.5 -37.5t-38.5 -12.5q-52 0 -52 50zM175 78q-3 -57 -23.5 -113t-51.5 -104l-53 15q27 51 40.5 99.5t15.5 102.5h72z" />
<glyph unicode="?" horiz-adv-x="449" d="M410 520q0 -36 -15 -62t-37.5 -47t-49 -38t-49 -34.5t-37.5 -37t-15 -44.5q0 -22 20 -57l-80 -20q-12 23 -15 42t-3 36q0 29 14.5 52t36.5 43t47 38t47 37t36.5 40t14.5 48q0 38 -33.5 57.5t-80.5 19.5q-46 0 -80 -15.5t-59 -40.5l-37 57q34 29 81.5 47t104.5 18 q41 0 75.5 -9.5t60 -27.5t39.5 -44t14 -58zM146 39q0 24 14 36.5t38 12.5q22 0 37.5 -11.5t15.5 -37.5q0 -25 -14.5 -37t-38.5 -12q-52 0 -52 49z" />
<glyph unicode="&#xbf;" horiz-adv-x="441" d="M36 -69q0 35 15 61.5t37.5 47.5t49 38t49 34.5t37.5 37t15 44.5q0 22 -20 57l80 20q12 -23 15 -42t3 -36q0 -29 -14.5 -52.5t-36.5 -43t-47 -37.5t-47 -37t-36.5 -40.5t-14.5 -47.5q0 -38 33.5 -57.5t80.5 -19.5q46 0 80 15.5t59 40.5l37 -57q-34 -29 -81.5 -47 t-104.5 -18q-41 0 -75.5 9.5t-60 27.5t-39.5 44t-14 58zM300 412q0 -24 -14 -36.5t-38 -12.5q-22 0 -37.5 11.5t-15.5 37.5q0 25 14.5 37t38.5 12q52 0 52 -49z" />
<glyph unicode="!" horiz-adv-x="254" d="M165 650v-226l-8 -224h-59l-9 225v225h76zM76 39q0 24 14 36.5t38 12.5q22 0 37.5 -11.5t15.5 -37.5q0 -25 -15 -37t-38 -12q-52 0 -52 49z" />
<glyph unicode="&#xa1;" horiz-adv-x="236" d="M81 -200v226l8 224h59l9 -225v-225h-76zM170 411q0 -24 -14 -36.5t-38 -12.5q-22 0 -37.5 11.5t-15.5 37.5q0 25 15 37t38 12q52 0 52 -49z" />
<glyph unicode="-" horiz-adv-x="397" d="M70 222v70h257v-70h-257z" />
<glyph unicode="&#xad;" horiz-adv-x="397" d="M70 222v70h257v-70h-257z" />
<glyph unicode="&#x2013;" horiz-adv-x="577" d="M69 289h440v-58h-440v58z" />
<glyph unicode="&#x2014;" horiz-adv-x="1077" d="M69 289h940v-58h-940v58z" />
<glyph unicode="_" horiz-adv-x="678" d="M70 -46h538v-56h-538v56z" />
<glyph unicode="@" horiz-adv-x="837" d="M442 542q-71 0 -132 -22t-106 -65t-70.5 -107t-25.5 -148q0 -75 24.5 -134.5t68.5 -101.5t104 -64t131 -22q58 0 118.5 19t117.5 59l24 -38q-59 -42 -127.5 -64t-138.5 -22q-72 0 -139.5 22.5t-120.5 68.5t-85 115.5t-32 164.5q0 90 30.5 161t83.5 121t124.5 76.5 t152.5 26.5q85 0 150 -27.5t109 -73t67 -103.5t23 -118q0 -45 -10.5 -91.5t-32.5 -84t-56.5 -61t-83.5 -23.5q-39 0 -65.5 16t-37.5 45q-34 -37 -69.5 -49.5t-67.5 -12.5q-58 0 -93.5 33t-35.5 87q0 39 17.5 64t46 39t64 19.5t71.5 5.5q33 0 63 -3l1 60q1 51 -22.5 69.5 t-61.5 18.5q-12 0 -26.5 -2.5t-27 -8.5t-21 -16.5t-8.5 -27.5q0 -9 3 -22l-64 -8q-6 18 -6 34q0 25 12.5 45t34.5 34t50 21.5t60 7.5q28 0 54.5 -6.5t47 -22t33 -41.5t12.5 -66l-1 -220q0 -23 14.5 -35.5t36.5 -12.5q24 0 45 14.5t36 41.5t24 66t9 88q0 58 -20 109t-58.5 89 t-93.5 60.5t-124 22.5zM503 202q-14 2 -31 3.5t-35 1.5q-23 0 -45 -3.5t-39 -11.5t-27.5 -22.5t-10.5 -36.5q0 -36 21.5 -53.5t56.5 -17.5q32 0 62 17.5t48 38.5v84z" />
<glyph unicode="&#x26;" horiz-adv-x="735" d="M41 159q0 31 11.5 60t34.5 54t56.5 44t78.5 29q-9 36 -16 77t-7 77q0 34 10 63t29.5 50.5t48.5 33.5t67 12q21 0 45 -6t44 -22t33.5 -44t13.5 -71q0 -41 -15.5 -74t-41 -58t-57.5 -42.5t-66 -26.5q18 -53 43 -97.5t57 -76.5q34 44 48 89.5t18 96.5h208v-60h-152 q-12 -50 -31 -86.5t-52 -76.5q29 -23 61 -36.5t68 -13.5q27 0 52 13.5t42 36.5l32 -61q-23 -26 -59 -39.5t-73 -13.5q-49 0 -95 18t-84 47q-35 -30 -77.5 -47.5t-93.5 -17.5q-40 0 -73.5 13.5t-57.5 36.5t-37 53.5t-13 65.5zM237 298q-66 -20 -92 -52t-26 -78 q0 -30 9.5 -51.5t25.5 -36t36 -21.5t41 -7q38 0 66.5 12.5t53.5 33.5q-38 40 -66 90.5t-48 109.5zM415 506q0 51 -17 73t-49 22q-31 0 -53 -20t-22 -62q0 -75 20 -153q24 7 46 18.5t38.5 28.5t26.5 40t10 53z" />
<glyph unicode="/" horiz-adv-x="435" d="M406 685l-310 -737h-66l311 737h65z" />
<glyph unicode="\" horiz-adv-x="435" d="M95 685l311 -737h-66l-310 737h65z" />
<glyph unicode="|" horiz-adv-x="237" d="M152 685v-690h-67v690h67z" />
<glyph unicode="(" horiz-adv-x="345" d="M45 255q0 149 63.5 262.5t172.5 194.5l41 -45q-43 -36 -79.5 -77t-63.5 -90t-42.5 -109t-15.5 -133q0 -75 15.5 -135t42.5 -109t63.5 -90t79.5 -78l-38 -43q-112 81 -175.5 194t-63.5 258z" />
<glyph unicode=")" horiz-adv-x="345" d="M300 255q0 -146 -63 -258.5t-176 -193.5l-37 43q43 37 79.5 78t63.5 90t42.5 109t15.5 135q0 73 -15.5 133t-42.5 109t-64 90t-79 77l41 45q108 -81 171.5 -195t63.5 -262z" />
<glyph unicode="[" horiz-adv-x="314" d="M82 720h199v-58h-127v-789h127v-56h-199v903z" />
<glyph unicode="]" horiz-adv-x="314" d="M233 -183h-199v56h127v789h-127v58h199v-903z" />
<glyph unicode="{" horiz-adv-x="335" d="M267 -187q-51 0 -81 12t-46 33t-21 50t-5 63v209q0 31 -16.5 44.5t-48.5 15.5q-4 1 -12 1h-13v54h12t11 1q32 2 49.5 16t17.5 44v210q0 31 5 60t21.5 50.5t47 34.5t81.5 13h34v-52h-32q-32 0 -50 -6t-27 -19t-11.5 -33t-2.5 -47v-154q0 -59 -14.5 -95.5t-60.5 -48.5 q45 -10 60 -48t15 -95v-156q0 -27 2 -47t11 -33t26.5 -19t49.5 -6h34v-52h-36v0z" />
<glyph unicode="}" horiz-adv-x="335" d="M33 -187v52h33q31 0 49 6t27 19t11.5 33t2.5 47v156q0 57 14.5 95t60.5 48q-47 12 -61 48.5t-14 95.5v154q0 27 -2.5 47t-12 33t-28 19t-49.5 6h-31v52h34q51 0 81 -13t46.5 -34.5t21.5 -50.5t5 -60v-210q0 -32 19.5 -45.5t54.5 -15.5h16v-54h-17q-35 -2 -54 -15.5 t-19 -45.5v-209q0 -34 -5 -63t-20.5 -50t-46 -33t-81.5 -12h-35z" />
<glyph unicode="&#xa7;" horiz-adv-x="550" d="M265 -68q0 27 -13 67t-33 86t-43 95.5t-43 95.5t-33 86t-13 68q0 57 31.5 100t78 71.5t101 43t100.5 14.5q23 0 54.5 -3t61.5 -11l-3 -77q-28 18 -64 30.5t-66 12.5q-42 0 -62 -24t-20 -64q0 -25 13 -64.5t32.5 -86.5t42 -98t42 -98t32.5 -87t13 -65q0 -40 -17 -72.5 t-45 -58.5t-64 -45.5t-74 -32t-74 -19t-65 -6.5q-20 0 -44 1.5t-58 10.5l3 76q24 -16 52.5 -25.5t52.5 -9.5q23 0 45 4.5t39.5 15t28.5 27.5t11 42zM415 17q0 29 -12.5 68.5t-32 84.5t-41.5 93t-41.5 94.5t-32 88.5t-12.5 75q0 21 7 38t17 29q-29 -13 -51.5 -30t-37.5 -36.5 t-22.5 -39t-7.5 -37.5q0 -29 13 -68.5t32 -83.5t42 -91.5t42 -93t32 -87t13 -73.5q0 -17 -3 -32.5t-14 -29.5q57 25 83.5 56t26.5 75z" />
<glyph unicode="&#x2022;" horiz-adv-x="408" d="M84 269q0 25 9.5 47t25.5 38.5t38 26t47 9.5t47 -9.5t38.5 -26t26 -38.5t9.5 -47t-9.5 -47t-26 -38t-38.5 -25.5t-47 -9.5t-47 9.5t-38 25.5t-25.5 38t-9.5 47z" />
<glyph unicode="#" horiz-adv-x="617" d="M361 155h-154l-27 -155h-64l27 155h-96l9 50h96l27 151h-104l9 50h104l27 150h63l-27 -150h154l27 150h63l-27 -150h101l-9 -50h-100l-27 -151h109l-9 -50h-109l-27 -155h-63zM216 205h154l27 151h-154z" />
<glyph unicode="%" horiz-adv-x="723" d="M205 659q82 0 120 -43t38 -115q0 -29 -9 -57t-28.5 -50t-49.5 -36t-72 -14q-81 0 -119 40.5t-38 116.5q0 32 9.5 61t29 50.5t49.5 34t70 12.5zM171 52l-43 30l421 515l41 -33zM205 400q27 0 44.5 7.5t27 21t13.5 32t4 40.5q0 18 -4 36.5t-13.5 33.5t-27 24t-44.5 9 q-28 0 -46 -9t-28 -23t-13.5 -33t-3.5 -38q0 -22 4 -40.5t14 -32t27.5 -21t45.5 -7.5zM521 304q82 0 120 -42.5t38 -114.5q0 -29 -9 -57t-28.5 -50.5t-49.5 -36.5t-72 -14q-81 0 -119 40.5t-38 117.5q0 32 9.5 60.5t29 50t49.5 34t70 12.5zM521 45q54 0 71.5 28.5t17.5 73.5 q0 18 -4 36.5t-13.5 33t-27 23.5t-44.5 9q-28 0 -46 -9t-28 -23t-13.5 -32.5t-3.5 -37.5q0 -23 4 -41.5t14 -32t27.5 -21t45.5 -7.5z" />
<glyph unicode="&#x2030;" horiz-adv-x="1057" d="M205 659q82 0 120 -43t38 -115q0 -29 -9 -57t-28.5 -50t-49.5 -36t-72 -14q-81 0 -119 40.5t-38 116.5q0 32 9.5 61t29 50.5t49.5 34t70 12.5zM205 400q27 0 44.5 7.5t27 21t13.5 32t4 40.5q0 18 -4 36.5t-13.5 33.5t-27 24t-44.5 9q-28 0 -46 -9t-28 -23t-13.5 -33 t-3.5 -38q0 -22 4 -40.5t14 -32t27.5 -21t45.5 -7.5zM521 304q82 0 120 -42.5t38 -114.5q0 -29 -9 -57t-28.5 -50.5t-49.5 -36.5t-72 -14q-81 0 -119 40.5t-38 117.5q0 32 9.5 60.5t29 50t49.5 34t70 12.5zM521 45q54 0 71.5 28.5t17.5 73.5q0 18 -4 36.5t-13.5 33t-27 23.5 t-44.5 9q-28 0 -46 -9t-28 -23t-13.5 -32.5t-3.5 -37.5q0 -23 4 -41.5t14 -32t27.5 -21t45.5 -7.5zM861 304q82 0 120 -42.5t38 -114.5q0 -29 -9 -57t-28 -50.5t-49.5 -36.5t-72.5 -14q-80 0 -118.5 40.5t-38.5 117.5q0 32 10 60.5t29.5 50t49 34t69.5 12.5zM861 45 q54 0 72 28.5t18 73.5q0 18 -4 36.5t-14 33t-27.5 23.5t-44.5 9q-28 0 -45.5 -9t-27.5 -23t-13.5 -32.5t-3.5 -37.5q0 -23 3.5 -41.5t13.5 -32t27.5 -21t45.5 -7.5zM171 52l-43 30l421 515l41 -33z" />
<glyph unicode="&#x2020;" horiz-adv-x="505" d="M31 443h182v229h66v-229h195v-56h-195v-558h-66v558h-182v56z" />
<glyph unicode="'" horiz-adv-x="214" d="M132 414h-49l-19 236h86z" />
<glyph unicode="&#x22;" horiz-adv-x="392" d="M134 414h-52l-18 236h86zM311 414h-52l-18 236h87z" />
<glyph unicode="&#x201c;" horiz-adv-x="384" d="M224 485q3 57 23.5 117t52.5 108l55 -16q-53 -99 -56 -209h-75zM63 485q3 57 23.5 117t51.5 108l56 -16q-53 -99 -56 -209h-75z" />
<glyph unicode="&#x201d;" horiz-adv-x="384" d="M184 704q-2 -57 -23 -117t-52 -108l-56 15q54 102 57 210h74zM345 704q-2 -57 -23 -117t-52 -108l-56 15q54 102 57 210h74z" />
<glyph unicode="&#x2018;" horiz-adv-x="223" d="M63 485q3 57 23.5 117t51.5 108l56 -16q-53 -99 -56 -209h-75z" />
<glyph unicode="&#x2019;" horiz-adv-x="223" d="M184 704q-2 -57 -23 -117t-52 -108l-56 15q54 102 57 210h74z" />
<glyph unicode="&#x201a;" horiz-adv-x="227" d="M152 78q-3 -57 -23.5 -113t-52.5 -104l-52 15q26 51 40 99.5t16 102.5h72z" />
<glyph unicode="&#x201e;" horiz-adv-x="390" d="M152 78q-3 -57 -23.5 -113t-52.5 -104l-52 15q26 51 40 99.5t16 102.5h72zM316 78q-3 -57 -23.5 -113t-52.5 -104l-52 15q26 51 40 99.5t16 102.5h72z" />
<glyph unicode="&#x2039;" horiz-adv-x="286" d="M170 465h69l-111 -227l111 -235h-69l-125 231z" />
<glyph unicode="&#x203a;" horiz-adv-x="286" d="M241 234l-125 -231h-69l111 235l-111 227h69z" />
<glyph unicode="&#xab;" horiz-adv-x="483" d="M170 465h69l-111 -227l111 -235h-69l-125 231zM367 465h70l-111 -227l111 -235h-70l-125 231z" />
<glyph unicode="&#xbb;" horiz-adv-x="483" d="M241 234l-125 -231h-69l111 235l-111 227h69zM438 234l-125 -231h-69l111 235l-111 227h69z" />
<glyph unicode="*" horiz-adv-x="439" d="M182 337l20 123q3 -2 7 -2.5t9 -0.5q2 0 6 0.5t6 1.5l23 -122h-71zM231 519q-6 3 -13 3q-4 0 -12 -2l-24 114h71zM185 482q3 -12 13 -20l-96 -86l-41 62zM102 596l96 -81q-7 -3 -10 -9.5t-4 -14.5l-123 43zM234 462q12 6 15 19l128 -44l-40 -60zM250 492q-2 16 -12 23 l99 80l40 -60z" />
<glyph unicode="&#xb7;" horiz-adv-x="239" d="M68 294q0 22 14 35.5t37 13.5q22 0 37 -13t15 -36q0 -24 -15 -37t-37 -13q-23 0 -37 13t-14 37z" />
<glyph unicode="+" horiz-adv-x="519" d="M227 265h-173v58h173v160h65v-160h173v-58h-173v-165h-65v165z" />
<glyph unicode="&#x3c;" horiz-adv-x="459" d="M37 261v52l323 230l39 -54l-284 -201l283 -211l-38 -54z" />
<glyph unicode="=" horiz-adv-x="575" d="M74 368v59h428v-59h-428zM74 169v59h428v-59h-428z" />
<glyph unicode="&#x3e;" horiz-adv-x="459" d="M100 23l-39 54l284 211l-285 201l39 54l323 -230v-52z" />
<glyph unicode="&#x2122;" horiz-adv-x="933" d="M411 651h67l107 -222l49 -113l47 111l104 224h66v-391h-55v300l-36 -88l-98 -212h-56l-99 202l-44 95l1 -90v-207h-53v391zM192 605h-136v46h330v-46h-136v-345h-58v345z" />
<glyph unicode="&#xae;" horiz-adv-x="608" d="M303 168q-49 0 -92.5 19.5t-76 52.5t-51.5 77.5t-19 95.5t19 96t51.5 78t76 52.5t92.5 19.5q50 0 94 -19.5t77 -52.5t52 -78t19 -96t-19 -96t-52 -78t-77 -52t-94 -19zM303 201q44 0 81.5 15.5t64.5 43.5t42.5 67t15.5 86q0 43 -15.5 82t-42.5 67.5t-64.5 45.5t-81.5 17 q-43 0 -79.5 -15.5t-63.5 -43.5t-42.5 -67t-15.5 -86q0 -48 16 -87t43.5 -66.5t64 -43t77.5 -15.5zM204 579h101q66 0 92.5 -27t26.5 -76q0 -38 -18.5 -62.5t-49.5 -34.5l67 -124h-55l-60 117h-54v-117h-50v324zM304 409q30 0 49 13.5t19 51.5q0 37 -16 51.5t-54 14.5h-48 v-131h50z" />
<glyph unicode="&#xa9;" horiz-adv-x="738" d="M367 -7q-64 0 -121 25t-99.5 68.5t-67 102t-24.5 124.5q0 67 24.5 125.5t67 102t99.5 68.5t121 25q66 0 124 -25t100.5 -68.5t67.5 -102t25 -125.5q0 -66 -24.5 -124.5t-67.5 -102t-100.5 -68.5t-124.5 -25zM367 30q58 0 108 21.5t87 59t58.5 89.5t21.5 113 q0 58 -21.5 109.5t-58.5 90t-87 61t-108 22.5q-56 0 -105 -21t-85.5 -59t-57.5 -90t-21 -113q0 -62 21.5 -114t58.5 -89.5t86 -58.5t103 -21zM384 111q-47 0 -85 11.5t-65 35.5t-41.5 62t-14.5 91q0 51 15.5 89t43.5 64t67 39t86 13q35 0 65 -6.5t50 -17.5l-19 -53 q-20 14 -45.5 22t-51.5 8q-72 0 -110.5 -40t-38.5 -117q0 -80 39 -117t109 -37q33 0 62.5 8.5t45.5 17.5l15 -49q-54 -24 -127 -24z" />
<glyph unicode="&#x20ac;" horiz-adv-x="615" d="M41 218l10 57h66q-1 11 -1 22v23v25.5t1 24.5h-66l10 58h64q22 112 90.5 171.5t180.5 59.5q48 0 89.5 -10.5t69.5 -25.5l-26 -74q-27 19 -62 29.5t-70 10.5q-85 0 -128.5 -41.5t-58.5 -119.5h268l-11 -58h-264q-1 -11 -1 -23.5v-24.5v-24.5t1 -22.5h249l-10 -57h-232 q15 -81 59.5 -120.5t129.5 -39.5q45 0 84 11.5t62 25.5l21 -67q-38 -20 -80.5 -29t-96.5 -9q-111 0 -179 54t-87 174h-82z" />
<glyph unicode="$" horiz-adv-x="499" d="M275 674v-57q48 -2 85 -11t65 -23l-23 -66q-23 17 -56.5 27.5t-70.5 12.5v-203q31 -13 62.5 -28t57 -36t41 -49t15.5 -68q0 -32 -13.5 -58t-37 -46.5t-56 -33.5t-69.5 -17v-55h-48v53q-56 1 -101.5 13.5t-74.5 30.5l25 65q26 -19 67.5 -33.5t83.5 -16.5v226 q-30 13 -59.5 27t-53 33t-37.5 44.5t-14 60.5q0 31 12.5 56.5t34 45t51.5 31.5t66 16v59h48zM375 166q0 21 -8 38t-21.5 30.5t-31.5 24.5t-39 21v-202q42 7 71 28.5t29 59.5zM138 472q0 -35 25.5 -57t63.5 -40v179q-41 -6 -65 -26.5t-24 -55.5z" />
<glyph unicode="&#xa2;" horiz-adv-x="485" d="M303 567v-78q37 -2 67 -10t56 -22l-25 -74q-23 17 -46.5 26.5t-51.5 11.5v-365q30 2 56.5 14t43.5 27l22 -67q-26 -17 -58 -26.5t-64 -12.5v-64h-54v65q-89 8 -141.5 69.5t-52.5 170.5q0 57 14.5 101.5t40 76.5t61.5 51t78 25v81h54zM139 233q0 -71 28 -115t82 -57v356 q-54 -13 -82 -59.5t-28 -124.5z" />
<glyph unicode="&#xa3;" horiz-adv-x="605" d="M59 295v58h88v77q0 60 17.5 103.5t47 71t68.5 41t82 13.5q38 0 79 -13t76 -45l-41 -59q-29 30 -56 40.5t-59 10.5q-31 0 -56 -8.5t-42.5 -27t-27 -49.5t-9.5 -76v-79h234v-58h-234v-66q0 -52 -14.5 -91t-58.5 -70h237q31 0 52.5 5t37.5 14t26.5 20.5t19.5 24.5l42 -53 q-7 -12 -19.5 -26t-31 -26t-43 -19.5t-55.5 -7.5h-373v53q24 3 43 16t31.5 32t19.5 41.5t7 44.5v108h-88z" />
<glyph unicode="&#xa5;" horiz-adv-x="581" d="M297 317l80 167l83 166h81l-183 -354h138v-57h-161v-90h161v-57h-161v-92h-81v92h-159v57h159v90h-159v57h134l-196 354h87l90 -165z" />
<glyph unicode="&#xa4;" horiz-adv-x="558" d="M52 69l104 104q-30 40 -30 89t30 87q-3 3 -19 18.5t-34 34t-33.5 34t-17.5 18.5l33 34l105 -105q20 13 41 20.5t46 7.5q24 0 46.5 -7.5t42.5 -20.5l106 105l33 -34l-106 -105q16 -19 23 -41t7 -46q0 -49 -30 -88l106 -105l-35 -29l-104 102q-19 -14 -42 -21.5t-46 -7.5 q-24 0 -46 7.5t-42 20.5l-103 -102zM278 167q39 0 64 27.5t25 67.5q0 42 -24.5 67.5t-64.5 25.5q-39 0 -64 -25t-25 -68q0 -42 25.5 -68.5t63.5 -26.5z" />
</font>
</defs>
</svg>
